<svg id="svg" version="1.1" xmlns="http://www.w3.org/2000/svg" xmlns:xlink="http://www.w3.org/1999/xlink" width="400" height="400" viewBox="0, 0, 400,400"><g id="svgg"><path id="path0" d="M154.400 216.400 C 154.400 216.620,153.995 216.804,153.500 216.809 C 153.005 216.814,152.150 217.170,151.600 217.600 C 151.050 218.030,150.466 218.386,150.301 218.391 C 149.762 218.407,118.614 249.799,118.032 250.913 C 117.720 251.511,117.315 252.000,117.132 252.000 C 116.950 252.000,116.800 252.540,116.800 253.200 C 116.800 253.860,116.620 254.400,116.400 254.400 C 116.160 254.400,116.000 255.992,116.000 258.376 C 116.000 260.596,116.177 262.462,116.400 262.600 C 116.620 262.736,116.800 263.197,116.800 263.624 C 116.800 264.051,116.980 264.400,117.200 264.400 C 117.420 264.400,117.600 264.671,117.600 265.002 C 117.600 265.794,150.598 298.800,151.390 298.800 C 151.726 298.800,152.000 298.980,152.000 299.200 C 152.000 299.420,152.360 299.600,152.800 299.600 C 153.240 299.600,153.600 299.780,153.600 300.000 C 153.600 300.243,155.400 300.400,158.200 300.400 C 161.000 300.400,162.800 300.243,162.800 300.000 C 162.800 299.780,163.300 299.600,163.912 299.600 C 164.565 299.600,165.261 299.270,165.600 298.800 C 165.917 298.360,166.415 298.000,166.706 298.000 C 167.344 298.000,169.200 296.214,169.200 295.601 C 169.200 295.362,169.560 294.780,170.000 294.308 C 170.440 293.836,170.800 293.033,170.800 292.525 C 170.800 292.016,170.980 291.600,171.200 291.600 C 171.456 291.600,171.600 288.000,171.600 281.600 L 171.600 271.600 222.606 271.600 C 273.447 271.600,276.800 271.520,276.800 270.303 C 276.800 270.136,277.074 270.000,277.409 270.000 C 278.182 270.000,282.400 265.810,282.400 265.042 C 282.400 264.726,282.578 264.407,282.797 264.333 C 283.015 264.260,283.234 263.705,283.284 263.100 C 283.334 262.495,283.515 262.000,283.687 262.000 C 283.859 262.000,284.000 260.290,284.000 258.200 C 284.000 255.933,283.839 254.400,283.600 254.400 C 283.380 254.400,283.200 254.147,283.200 253.838 C 283.200 252.181,279.483 247.200,278.246 247.200 C 277.891 247.200,277.600 247.020,277.600 246.800 C 277.600 246.580,277.240 246.400,276.800 246.400 C 276.360 246.400,276.000 246.220,276.000 246.000 C 276.000 245.780,275.471 245.600,274.824 245.600 C 274.177 245.600,273.536 245.420,273.400 245.200 C 273.237 244.937,255.796 244.800,222.376 244.800 L 171.600 244.800 171.600 235.594 C 171.600 226.855,171.217 223.200,170.303 223.200 C 170.136 223.200,170.000 222.914,170.000 222.565 C 170.000 221.803,165.722 217.600,164.946 217.600 C 164.646 217.600,164.400 217.420,164.400 217.200 C 164.400 216.980,163.860 216.800,163.200 216.800 C 162.540 216.800,162.000 216.620,162.000 216.400 C 162.000 216.161,160.467 216.000,158.200 216.000 C 155.933 216.000,154.400 216.161,154.400 216.400 M237.200 300.000 C 237.200 300.220,236.928 300.400,236.595 300.400 C 235.886 300.400,234.570 301.111,233.445 302.100 C 233.007 302.485,232.413 302.800,232.125 302.800 C 231.836 302.800,231.600 303.025,231.600 303.300 C 231.599 303.575,231.136 304.338,230.570 304.996 C 230.004 305.654,229.442 306.689,229.321 307.296 C 229.199 307.903,228.943 308.400,228.750 308.400 C 228.558 308.400,228.421 308.535,228.447 308.700 C 228.473 308.865,228.473 313.365,228.447 318.700 L 228.400 328.400 177.394 328.400 C 126.553 328.400,123.200 328.480,123.200 329.697 C 123.200 329.864,122.926 330.000,122.591 330.000 C 121.799 330.000,117.600 334.199,117.600 334.991 C 117.600 335.326,117.464 335.600,117.297 335.600 C 117.131 335.600,116.771 336.317,116.497 337.194 C 115.899 339.110,115.824 345.600,116.400 345.600 C 116.620 345.600,116.800 346.140,116.800 346.800 C 116.800 347.460,116.980 348.000,117.200 348.000 C 117.420 348.000,117.600 348.241,117.600 348.536 C 117.600 349.312,121.004 352.800,121.760 352.800 C 122.112 352.800,122.400 352.980,122.400 353.200 C 122.400 353.420,122.760 353.600,123.200 353.600 C 123.640 353.600,124.000 353.780,124.000 354.000 C 124.000 354.220,124.439 354.400,124.976 354.400 C 125.513 354.400,126.064 354.580,126.200 354.800 C 126.363 355.063,143.871 355.200,177.424 355.200 L 228.400 355.200 228.400 364.976 C 228.400 371.063,228.551 374.846,228.800 375.000 C 229.020 375.136,229.200 375.597,229.200 376.024 C 229.200 376.451,229.380 376.800,229.600 376.800 C 229.820 376.800,230.000 377.074,230.000 377.409 C 230.000 378.201,234.199 382.400,234.991 382.400 C 235.326 382.400,235.600 382.580,235.600 382.800 C 235.600 383.020,236.140 383.200,236.800 383.200 C 237.460 383.200,238.000 383.380,238.000 383.600 C 238.000 383.839,239.533 384.000,241.800 384.000 C 244.067 384.000,245.600 383.839,245.600 383.600 C 245.600 383.380,246.140 383.200,246.800 383.200 C 247.460 383.200,248.000 383.020,248.000 382.800 C 248.000 382.580,248.267 382.400,248.594 382.400 C 249.387 382.400,281.389 350.401,282.405 348.592 C 282.842 347.813,283.200 346.821,283.200 346.388 C 283.200 345.955,283.380 345.600,283.600 345.600 C 283.839 345.600,284.000 344.067,284.000 341.800 C 284.000 339.533,283.839 338.000,283.600 338.000 C 283.380 338.000,283.200 337.460,283.200 336.800 C 283.200 336.140,283.020 335.600,282.800 335.600 C 282.580 335.600,282.400 335.323,282.400 334.985 C 282.400 334.190,249.397 301.200,248.601 301.200 C 248.271 301.200,248.000 301.020,248.000 300.800 C 248.000 300.580,247.640 300.400,247.200 300.400 C 246.760 300.400,246.400 300.220,246.400 300.000 C 246.400 299.757,244.600 299.600,241.800 299.600 C 239.000 299.600,237.200 299.757,237.200 300.000 " stroke="none" fill="#5b7483" fill-rule="evenodd"></path><path id="path1" d="M187.600 16.633 C 187.014 16.958,186.848 17.193,187.200 17.200 C 187.733 17.211,187.733 17.255,187.200 17.600 C 186.413 18.108,183.351 18.109,182.401 17.601 C 181.841 17.301,181.483 17.374,180.964 17.893 C 180.100 18.757,178.136 19.011,177.351 18.360 C 176.863 17.954,176.718 18.028,176.520 18.783 C 176.301 19.620,176.117 19.678,174.347 19.468 C 172.957 19.304,172.439 19.374,172.507 19.720 C 172.568 20.035,172.055 20.182,171.010 20.146 C 169.990 20.112,169.259 20.314,168.970 20.709 C 168.688 21.095,168.189 21.238,167.635 21.093 C 167.056 20.942,166.672 21.069,166.521 21.461 C 166.362 21.877,165.984 21.982,165.284 21.807 C 164.711 21.663,164.159 21.743,164.005 21.992 C 163.856 22.234,163.209 22.469,162.567 22.516 C 161.925 22.562,161.170 22.817,160.888 23.083 C 160.351 23.591,159.200 23.368,159.200 22.757 C 159.200 22.561,159.037 22.400,158.837 22.400 C 158.638 22.400,158.569 22.760,158.684 23.200 C 158.890 23.986,158.357 24.226,156.860 24.021 C 156.563 23.980,156.438 24.139,156.583 24.373 C 156.749 24.641,156.382 24.800,155.600 24.800 C 154.870 24.800,154.455 24.966,154.600 25.200 C 154.832 25.575,154.033 25.777,152.900 25.630 C 152.625 25.594,152.400 25.753,152.400 25.982 C 152.400 26.212,152.040 26.400,151.600 26.400 C 151.160 26.400,150.800 26.559,150.800 26.753 C 150.800 27.325,149.377 27.530,148.557 27.077 C 147.882 26.704,147.859 26.731,148.349 27.329 C 148.831 27.918,148.797 28.000,148.073 28.000 C 147.619 28.000,147.136 28.180,147.000 28.400 C 146.864 28.620,146.403 28.800,145.976 28.800 C 145.549 28.800,145.199 28.935,145.199 29.100 C 145.198 29.265,144.208 29.850,143.000 30.400 C 141.792 30.950,140.802 31.535,140.801 31.700 C 140.799 32.209,139.269 32.031,139.088 31.500 C 138.994 31.225,138.990 31.428,139.079 31.952 C 139.215 32.747,139.106 32.869,138.421 32.690 C 137.924 32.560,137.600 32.668,137.600 32.963 C 137.600 33.557,134.469 35.290,133.962 34.977 C 133.763 34.853,133.600 34.956,133.600 35.205 C 133.600 35.786,132.590 36.800,132.012 36.800 C 131.767 36.800,131.187 37.154,130.723 37.586 C 130.259 38.019,129.750 38.293,129.593 38.196 C 129.436 38.098,128.985 38.375,128.591 38.809 C 128.198 39.244,127.700 39.600,127.484 39.600 C 127.268 39.600,126.705 40.018,126.231 40.528 C 125.758 41.039,125.152 41.384,124.885 41.295 C 124.618 41.206,124.400 41.307,124.400 41.519 C 124.400 41.731,123.373 42.679,122.118 43.627 C 120.863 44.574,119.305 45.858,118.655 46.478 C 118.005 47.099,117.398 47.532,117.306 47.439 C 117.128 47.261,104.761 59.716,103.400 61.444 C 101.810 63.463,100.067 65.134,99.815 64.882 C 99.674 64.740,99.658 64.889,99.781 65.212 C 99.904 65.535,99.553 66.323,99.002 66.962 C 98.451 67.601,98.000 68.233,98.000 68.366 C 98.000 68.499,97.595 69.056,97.100 69.604 C 96.605 70.152,95.945 71.095,95.632 71.700 C 95.320 72.305,94.915 72.800,94.732 72.800 C 94.550 72.800,94.400 73.030,94.400 73.312 C 94.400 73.593,94.040 74.083,93.600 74.400 C 93.160 74.717,92.800 75.319,92.800 75.737 C 92.800 76.347,92.688 76.405,92.236 76.030 C 91.850 75.709,91.589 75.694,91.412 75.981 C 91.269 76.211,91.343 76.400,91.576 76.400 C 92.056 76.400,92.160 77.462,91.700 77.667 C 91.535 77.740,91.025 78.520,90.568 79.400 C 89.930 80.626,89.526 80.977,88.839 80.900 C 88.021 80.808,87.998 80.855,88.575 81.432 C 89.387 82.245,88.981 82.911,87.885 82.563 C 87.098 82.314,87.084 82.341,87.696 82.954 C 88.345 83.602,87.593 85.989,86.737 85.997 C 86.593 85.999,86.569 86.360,86.684 86.800 C 86.801 87.247,86.696 87.600,86.447 87.600 C 86.201 87.600,86.000 87.876,86.000 88.213 C 86.000 88.549,85.731 88.928,85.402 89.054 C 85.074 89.181,84.889 89.421,84.993 89.589 C 85.239 89.987,83.827 92.894,83.531 92.598 C 83.407 92.474,83.393 92.829,83.499 93.386 C 83.613 93.982,83.509 94.400,83.247 94.400 C 83.001 94.400,82.800 94.850,82.800 95.400 C 82.800 95.950,82.620 96.400,82.400 96.400 C 82.180 96.400,82.000 96.862,82.000 97.427 C 82.000 98.257,81.853 98.407,81.234 98.211 C 80.812 98.077,80.349 98.159,80.204 98.394 C 80.059 98.628,80.175 98.770,80.461 98.710 C 80.747 98.649,81.043 99.005,81.118 99.500 C 81.194 99.995,81.063 100.400,80.828 100.400 C 80.593 100.400,80.400 100.850,80.400 101.400 C 80.400 101.964,80.169 102.400,79.869 102.400 C 79.503 102.400,79.395 102.785,79.521 103.644 C 79.637 104.435,79.504 105.012,79.154 105.228 C 78.821 105.434,78.658 106.068,78.739 106.840 C 78.841 107.813,78.737 108.062,78.300 107.894 C 77.985 107.773,77.474 107.854,77.164 108.075 C 76.707 108.399,76.725 108.436,77.259 108.266 C 78.107 107.997,78.520 109.823,77.779 110.564 C 77.493 110.850,77.201 111.695,77.130 112.442 C 77.008 113.720,76.909 113.802,75.460 113.841 C 74.613 113.864,73.782 114.105,73.614 114.378 C 73.408 114.711,72.567 114.821,71.054 114.713 C 69.304 114.589,68.800 114.679,68.800 115.117 C 68.800 115.550,68.341 115.642,66.840 115.512 C 65.328 115.380,64.926 115.462,65.082 115.870 C 65.219 116.226,64.944 116.400,64.243 116.400 C 63.592 116.400,63.200 116.179,63.200 115.813 C 63.200 115.424,62.970 115.313,62.520 115.486 C 62.131 115.635,62.036 115.812,62.298 115.899 C 62.549 115.983,62.656 116.310,62.535 116.626 C 62.263 117.333,60.743 117.378,60.047 116.700 C 59.633 116.297,59.559 116.355,59.667 117.000 C 59.775 117.652,59.578 117.800,58.600 117.800 C 57.940 117.800,57.252 118.033,57.070 118.318 C 56.883 118.612,56.409 118.730,55.970 118.591 C 55.434 118.420,55.200 118.536,55.200 118.973 C 55.200 119.375,54.841 119.600,54.200 119.600 C 53.650 119.600,53.200 119.801,53.200 120.047 C 53.200 120.292,52.852 120.402,52.426 120.291 C 51.961 120.169,51.560 120.327,51.422 120.686 C 51.295 121.017,50.927 121.181,50.597 121.054 C 50.268 120.928,50.000 120.977,50.000 121.163 C 50.000 121.562,43.378 124.800,42.562 124.800 C 42.253 124.800,42.000 124.954,42.000 125.143 C 42.000 125.434,37.769 128.290,36.651 128.753 C 36.448 128.837,35.749 129.416,35.097 130.038 C 34.445 130.661,33.779 131.132,33.617 131.085 C 33.455 131.038,32.755 131.604,32.061 132.342 C 31.368 133.081,30.800 133.566,30.800 133.420 C 30.800 133.158,29.016 134.766,25.054 138.600 C 23.917 139.700,22.181 141.590,21.195 142.800 C 20.210 144.010,18.909 145.540,18.304 146.200 C 17.699 146.860,17.203 147.537,17.202 147.703 C 17.198 148.324,15.073 150.368,14.682 150.127 C 14.456 149.987,14.398 150.074,14.552 150.322 C 14.789 150.705,14.222 152.179,13.599 152.800 C 13.489 152.910,13.129 153.540,12.799 154.200 C 12.470 154.860,11.974 155.639,11.697 155.931 C 11.421 156.223,11.013 156.802,10.791 157.216 C 10.569 157.631,10.166 157.916,9.894 157.851 C 9.622 157.785,9.535 157.807,9.700 157.899 C 9.865 157.991,10.000 158.422,10.000 158.857 C 10.000 159.292,9.820 159.536,9.600 159.400 C 9.372 159.259,9.200 159.610,9.200 160.219 C 9.200 161.010,9.043 161.225,8.591 161.052 C 8.092 160.861,8.059 160.963,8.408 161.615 C 8.744 162.243,8.699 162.464,8.194 162.658 C 7.842 162.793,7.651 163.157,7.770 163.467 C 7.889 163.777,7.721 164.132,7.396 164.257 C 7.071 164.382,6.895 164.630,7.006 164.810 C 7.117 164.989,6.918 165.425,6.565 165.778 C 6.211 166.131,6.019 166.673,6.137 166.981 C 6.425 167.732,5.478 168.518,4.937 167.977 C 4.665 167.705,4.533 167.767,4.533 168.164 C 4.533 168.490,4.728 168.721,4.967 168.678 C 5.205 168.635,5.400 168.960,5.400 169.400 C 5.400 169.869,5.172 170.152,4.850 170.083 C 4.461 170.001,4.357 170.262,4.494 170.981 C 4.608 171.576,4.456 172.188,4.126 172.462 C 3.817 172.718,3.656 173.169,3.769 173.464 C 4.047 174.188,3.607 175.251,3.147 174.967 C 2.934 174.836,2.873 175.279,3.002 176.013 C 3.263 177.494,2.517 178.781,1.898 177.919 C 1.647 177.571,1.624 177.663,1.827 178.200 C 2.317 179.499,2.253 181.410,1.723 181.308 C 1.391 181.243,1.269 181.913,1.323 183.508 C 1.377 185.109,1.255 185.772,0.920 185.707 C 0.562 185.637,0.501 186.474,0.679 188.995 C 0.827 191.105,0.761 192.569,0.501 192.888 C -0.062 193.579,-0.171 203.047,0.380 203.388 C 0.922 203.723,0.927 208.615,0.386 209.626 C 0.064 210.228,0.102 210.400,0.559 210.400 C 1.285 210.400,1.604 211.347,1.529 213.282 C 1.498 214.097,1.701 215.040,1.981 215.377 C 2.315 215.779,2.397 216.490,2.220 217.435 C 2.048 218.353,2.093 218.789,2.346 218.634 C 2.819 218.341,3.225 219.477,3.048 220.600 C 2.979 221.040,3.203 221.605,3.546 221.856 C 4.069 222.240,4.089 222.486,3.671 223.404 C 3.239 224.353,3.255 224.464,3.798 224.256 C 4.255 224.081,4.488 224.340,4.663 225.216 C 4.795 225.877,5.061 226.514,5.253 226.633 C 5.446 226.752,5.493 227.288,5.358 227.825 C 5.170 228.575,5.272 228.800,5.799 228.800 C 6.276 228.800,6.407 229.004,6.229 229.468 C 6.088 229.835,6.171 230.258,6.413 230.408 C 6.655 230.558,6.890 230.934,6.936 231.243 C 6.981 231.553,7.407 232.553,7.882 233.464 C 8.357 234.375,8.638 235.229,8.506 235.360 C 8.374 235.492,8.499 235.600,8.783 235.600 C 9.142 235.600,9.228 235.961,9.064 236.782 C 8.877 237.715,8.951 237.917,9.414 237.739 C 9.779 237.599,10.000 237.757,10.000 238.157 C 10.000 238.511,10.180 238.800,10.400 238.800 C 10.620 238.800,10.800 239.070,10.800 239.400 C 10.800 239.730,10.980 240.000,11.200 240.000 C 11.420 240.000,11.600 240.270,11.600 240.600 C 11.600 240.930,11.780 241.200,12.000 241.200 C 12.220 241.200,12.400 241.478,12.400 241.817 C 12.400 242.156,12.760 242.820,13.200 243.292 C 13.640 243.764,14.000 244.387,14.000 244.675 C 14.000 244.964,14.135 245.201,14.300 245.202 C 14.465 245.203,15.230 246.192,16.000 247.400 C 16.770 248.608,17.535 249.597,17.700 249.598 C 17.865 249.599,18.000 249.804,18.000 250.053 C 18.000 250.302,18.324 250.797,18.721 251.153 C 19.117 251.509,19.972 252.512,20.621 253.382 C 22.121 255.396,25.238 258.543,27.768 260.600 C 28.851 261.480,30.252 262.695,30.882 263.300 C 31.512 263.905,32.156 264.403,32.314 264.408 C 33.122 264.429,35.575 267.065,35.167 267.473 C 34.852 267.788,34.868 267.995,35.227 268.217 C 35.536 268.408,35.622 268.359,35.455 268.089 C 35.308 267.851,35.345 267.558,35.537 267.439 C 35.951 267.183,37.992 268.064,37.997 268.500 C 37.999 268.665,38.270 268.800,38.600 268.800 C 38.930 268.800,39.200 268.980,39.200 269.200 C 39.200 269.420,39.470 269.600,39.800 269.600 C 40.526 269.600,40.599 270.273,39.900 270.512 C 39.625 270.606,39.787 270.621,40.259 270.544 C 41.221 270.389,43.332 271.334,42.927 271.739 C 42.784 271.883,42.961 272.000,43.321 272.000 C 43.681 272.000,44.623 272.363,45.414 272.808 C 46.205 273.252,47.001 273.523,47.184 273.410 C 47.367 273.297,47.619 273.474,47.746 273.802 C 47.872 274.131,48.251 274.400,48.587 274.400 C 48.924 274.400,49.200 274.588,49.200 274.818 C 49.200 275.047,49.425 275.191,49.700 275.137 C 50.423 274.996,53.200 276.095,53.200 276.523 C 53.200 276.722,53.469 276.782,53.797 276.656 C 54.125 276.530,54.615 276.664,54.885 276.953 C 55.155 277.242,55.664 277.404,56.016 277.312 C 56.368 277.220,56.875 277.408,57.143 277.731 C 57.410 278.053,57.981 278.226,58.410 278.113 C 58.877 277.991,59.281 278.145,59.415 278.495 C 59.554 278.856,59.993 279.014,60.557 278.906 C 61.061 278.810,61.749 279.006,62.085 279.342 C 62.441 279.698,63.052 279.859,63.550 279.729 C 64.442 279.496,65.736 280.256,65.393 280.812 C 65.284 280.988,65.709 280.938,66.338 280.701 C 67.528 280.252,69.010 280.537,68.635 281.143 C 68.517 281.334,69.315 281.439,70.409 281.376 C 72.023 281.282,72.502 281.411,72.957 282.060 C 73.328 282.590,73.610 282.708,73.794 282.410 C 74.144 281.844,78.334 281.979,78.719 282.569 C 78.904 282.853,80.861 282.956,84.454 282.870 L 89.908 282.740 89.466 281.570 C 89.223 280.926,88.884 280.400,88.712 280.400 C 88.541 280.400,88.400 280.040,88.400 279.600 C 88.400 279.160,88.220 278.800,88.000 278.800 C 87.780 278.800,87.600 278.451,87.600 278.024 C 87.600 277.597,87.420 277.136,87.200 277.000 C 86.980 276.864,86.800 276.403,86.800 275.976 C 86.800 275.549,86.620 275.200,86.400 275.200 C 86.180 275.200,86.000 274.660,86.000 274.000 C 86.000 273.340,85.800 272.800,85.555 272.800 C 85.287 272.800,85.180 272.320,85.285 271.600 C 85.411 270.743,85.298 270.400,84.889 270.400 C 84.464 270.400,84.355 269.995,84.466 268.831 C 84.554 267.907,84.447 267.290,84.208 267.331 C 83.958 267.373,83.818 266.246,83.846 264.417 C 83.875 262.538,83.710 261.253,83.401 260.944 C 82.726 260.269,82.840 255.670,83.542 255.236 C 83.948 254.985,84.007 254.274,83.791 252.251 C 83.513 249.661,83.959 248.080,84.818 248.611 C 84.998 248.722,85.261 248.626,85.402 248.397 C 85.544 248.168,85.421 248.030,85.130 248.090 C 84.794 248.160,84.554 247.723,84.475 246.900 C 84.404 246.170,84.536 245.600,84.775 245.600 C 85.009 245.600,85.200 245.060,85.200 244.400 C 85.200 243.740,85.380 243.200,85.600 243.200 C 85.820 243.200,86.000 242.750,86.000 242.200 C 86.000 241.650,86.180 241.200,86.400 241.200 C 86.620 241.200,86.800 240.966,86.800 240.680 C 86.800 239.501,87.807 238.017,88.466 238.224 C 88.833 238.339,89.247 238.247,89.387 238.021 C 89.538 237.776,89.390 237.706,89.021 237.847 C 88.581 238.016,88.400 237.840,88.400 237.243 C 88.400 236.779,88.580 236.400,88.800 236.400 C 89.020 236.400,89.200 236.130,89.200 235.800 C 89.200 235.470,89.380 235.200,89.600 235.200 C 89.820 235.200,90.000 234.930,90.000 234.600 C 90.000 234.270,90.210 234.000,90.467 234.000 C 90.723 234.000,90.811 233.877,90.661 233.728 C 90.511 233.578,90.875 232.948,91.469 232.328 C 92.063 231.707,92.400 231.200,92.217 231.200 C 92.034 231.200,92.675 230.427,93.642 229.482 C 94.609 228.537,95.632 227.322,95.916 226.782 C 96.536 225.600,128.595 193.528,128.875 193.809 C 128.983 193.917,129.398 193.644,129.798 193.202 C 130.197 192.761,130.766 192.400,131.062 192.400 C 131.358 192.400,131.600 192.199,131.600 191.953 C 131.600 191.704,131.953 191.599,132.401 191.716 C 132.841 191.831,133.099 191.761,132.975 191.560 C 132.676 191.075,133.776 190.000,134.571 190.000 C 134.917 190.000,135.200 189.820,135.200 189.600 C 135.200 189.380,135.571 189.200,136.024 189.200 C 136.477 189.200,136.760 189.058,136.652 188.885 C 136.160 188.088,138.903 187.453,139.473 188.232 C 139.991 188.941,140.017 188.927,139.912 187.994 C 139.825 187.229,140.005 186.973,140.700 186.873 C 141.195 186.802,141.600 186.577,141.600 186.372 C 141.600 186.167,141.960 186.000,142.400 186.000 C 142.840 186.000,143.200 186.174,143.200 186.387 C 143.200 186.601,143.485 186.665,143.834 186.532 C 144.290 186.357,144.334 186.206,143.991 185.994 C 143.239 185.529,144.269 185.080,145.423 185.370 C 146.138 185.549,146.400 185.452,146.400 185.008 C 146.400 184.317,147.678 184.200,148.780 184.789 C 149.357 185.098,149.496 185.036,149.454 184.489 C 149.394 183.722,152.591 183.231,153.264 183.904 C 153.716 184.356,156.066 184.030,155.772 183.555 C 155.533 183.167,155.731 183.125,158.400 182.992 C 160.404 182.892,161.154 183.134,160.361 183.624 C 160.073 183.802,161.494 183.859,163.519 183.751 C 166.417 183.597,167.200 183.669,167.200 184.088 C 167.200 184.469,167.657 184.578,168.800 184.469 C 169.993 184.355,170.400 184.462,170.400 184.889 C 170.400 185.298,170.743 185.411,171.600 185.285 C 172.320 185.180,172.800 185.287,172.800 185.555 C 172.800 185.800,173.340 186.000,174.000 186.000 C 174.976 186.000,175.201 186.168,175.206 186.900 C 175.211 187.625,175.287 187.683,175.594 187.200 C 175.909 186.705,176.117 186.688,176.782 187.100 C 177.226 187.375,177.862 187.600,178.195 187.600 C 178.528 187.600,178.800 187.780,178.800 188.000 C 178.800 188.220,178.626 188.400,178.413 188.400 C 178.199 188.400,178.129 188.670,178.255 189.000 C 178.382 189.330,178.641 189.600,178.830 189.600 C 179.020 189.600,179.071 189.330,178.945 189.000 C 178.785 188.584,178.972 188.400,179.557 188.400 C 180.021 188.400,180.400 188.545,180.400 188.721 C 180.400 188.898,181.345 189.552,182.500 190.174 C 187.243 192.728,196.800 202.204,196.800 204.353 C 196.800 204.599,196.980 204.800,197.200 204.800 C 197.420 204.800,197.600 205.070,197.600 205.400 C 197.600 205.730,197.780 206.000,198.000 206.000 C 198.665 206.000,198.449 207.132,197.700 207.568 C 197.315 207.792,197.189 207.981,197.420 207.988 C 197.651 207.995,198.050 207.790,198.307 207.533 C 198.663 207.177,198.838 207.234,199.045 207.773 C 199.208 208.199,199.094 208.622,198.758 208.834 C 198.311 209.117,198.340 209.189,198.900 209.194 C 199.565 209.200,199.600 204.360,199.600 113.100 L 199.600 17.000 194.100 17.000 C 189.913 17.000,188.624 16.881,188.700 16.500 C 188.755 16.225,188.755 16.018,188.700 16.039 C 188.645 16.061,188.150 16.328,187.600 16.633 M146.224 27.413 C 145.788 27.742,145.669 28.000,145.952 28.000 C 146.230 28.000,146.727 27.730,147.057 27.400 C 147.824 26.633,147.242 26.642,146.224 27.413 " stroke="none" fill="#1c84d4" fill-rule="evenodd"></path><path id="path2" d="M200.200 112.721 C 200.200 190.730,200.101 209.597,199.688 210.094 C 199.285 210.579,199.278 210.933,199.652 211.755 L 200.128 212.800 235.398 212.800 C 254.796 212.800,270.802 212.935,270.967 213.100 C 271.290 213.423,271.430 213.437,276.113 213.605 C 277.825 213.667,279.320 213.871,279.436 214.059 C 279.552 214.246,280.057 214.400,280.557 214.400 C 281.057 214.400,281.602 214.535,281.767 214.700 C 282.106 215.039,282.310 215.080,284.024 215.150 C 284.728 215.179,285.142 215.370,285.000 215.600 C 284.864 215.820,285.078 216.003,285.476 216.006 C 286.659 216.016,289.232 217.035,288.904 217.363 C 288.737 217.530,288.789 217.607,289.020 217.533 C 289.590 217.353,292.400 218.468,292.400 218.875 C 292.400 219.054,292.609 219.200,292.864 219.200 C 293.119 219.200,294.268 219.910,295.418 220.779 C 296.568 221.647,297.620 222.247,297.755 222.112 C 297.890 221.977,298.000 222.147,298.000 222.491 C 298.000 223.096,299.057 223.804,299.734 223.652 C 299.918 223.611,300.168 223.957,300.290 224.422 C 300.458 225.064,300.593 225.139,300.849 224.734 C 301.109 224.325,301.189 224.364,301.194 224.900 C 301.197 225.285,301.378 225.600,301.596 225.600 C 301.814 225.600,302.399 226.228,302.896 226.995 C 303.393 227.762,304.115 228.392,304.500 228.395 C 304.885 228.398,305.200 228.670,305.200 229.000 C 305.200 229.330,305.380 229.600,305.600 229.600 C 305.820 229.600,306.000 229.830,306.000 230.112 C 306.000 230.393,306.360 230.883,306.800 231.200 C 307.240 231.517,307.600 232.097,307.600 232.488 C 307.600 232.880,307.742 233.200,307.916 233.200 C 308.089 233.200,308.764 234.235,309.416 235.500 C 310.067 236.765,310.735 237.860,310.900 237.933 C 311.065 238.007,311.206 238.367,311.213 238.733 C 311.220 239.100,311.484 239.742,311.800 240.159 C 312.116 240.576,312.277 241.076,312.157 241.269 C 312.038 241.462,312.179 241.570,312.470 241.510 C 312.820 241.437,312.954 241.725,312.866 242.355 C 312.792 242.880,312.949 243.445,313.216 243.610 C 313.482 243.774,313.700 244.379,313.700 244.955 C 313.700 245.530,313.817 246.000,313.959 246.000 C 314.334 246.000,315.200 249.969,315.200 251.688 C 315.200 252.494,315.380 253.264,315.600 253.400 C 315.831 253.542,316.000 255.671,316.000 258.424 C 316.000 261.341,315.844 263.200,315.600 263.200 C 315.380 263.200,315.200 264.070,315.200 265.134 C 315.200 266.951,314.061 271.351,313.191 272.895 C 312.976 273.277,312.800 273.851,312.800 274.172 C 312.800 274.492,312.422 275.395,311.960 276.177 C 311.499 276.960,311.274 277.603,311.460 277.606 C 311.647 277.609,311.543 277.775,311.228 277.974 C 310.914 278.173,310.611 278.647,310.555 279.028 C 310.499 279.409,310.221 279.863,309.938 280.038 C 309.655 280.213,309.544 280.478,309.693 280.626 C 309.841 280.774,309.692 281.165,309.363 281.494 C 309.034 281.823,308.833 282.297,308.916 282.546 C 309.096 283.084,314.400 283.284,314.400 282.753 C 314.400 282.559,315.120 282.400,316.000 282.400 C 316.880 282.400,317.600 282.265,317.600 282.100 C 317.600 281.935,318.545 281.744,319.700 281.676 C 320.855 281.608,321.971 281.383,322.180 281.176 C 322.389 280.969,323.165 280.800,323.904 280.800 C 324.697 280.800,325.146 280.636,325.000 280.400 C 324.852 280.160,325.369 280.000,326.296 280.000 C 327.145 280.000,328.019 279.821,328.238 279.602 C 328.456 279.384,329.109 279.165,329.689 279.117 C 330.268 279.070,330.655 278.888,330.548 278.715 C 330.440 278.542,330.678 278.397,331.076 278.394 C 332.196 278.385,334.840 277.373,334.537 277.070 C 334.388 276.922,334.937 276.800,335.757 276.800 C 336.649 276.800,337.148 276.639,337.000 276.400 C 336.864 276.180,337.113 276.000,337.553 276.000 C 337.993 276.000,338.464 275.820,338.600 275.600 C 338.736 275.380,339.276 275.200,339.801 275.200 C 340.333 275.200,341.030 274.807,341.377 274.311 C 341.720 273.822,342.000 273.618,342.000 273.858 C 342.000 274.316,348.514 271.141,349.675 270.117 C 350.056 269.781,350.578 269.654,350.875 269.825 C 351.164 269.992,351.266 269.980,351.102 269.800 C 350.799 269.465,351.037 269.288,353.962 267.683 C 354.881 267.179,355.973 266.459,356.388 266.083 C 357.751 264.849,358.362 264.400,358.683 264.396 C 358.857 264.393,359.743 263.681,360.651 262.812 C 361.560 261.943,362.539 261.180,362.827 261.116 C 363.115 261.052,364.132 260.235,365.086 259.300 C 366.040 258.365,366.996 257.600,367.211 257.600 C 367.425 257.600,367.600 257.330,367.600 257.000 C 367.600 256.670,367.829 256.400,368.110 256.400 C 368.390 256.400,370.055 254.857,371.810 252.971 C 373.564 251.084,375.752 248.732,376.671 247.742 C 377.590 246.753,378.346 245.821,378.351 245.672 C 378.361 245.367,379.535 243.736,380.300 242.963 C 380.575 242.685,380.800 242.279,380.800 242.062 C 380.800 241.845,380.942 241.607,381.117 241.533 C 381.291 241.460,381.965 240.680,382.614 239.800 C 383.264 238.920,384.021 238.056,384.298 237.880 C 384.574 237.704,384.800 237.334,384.800 237.058 C 384.800 236.782,385.367 235.666,386.059 234.578 C 387.886 231.708,388.800 230.034,388.800 229.559 C 388.800 229.330,389.070 228.873,389.400 228.543 C 389.730 228.213,390.000 227.585,390.000 227.148 C 390.000 226.711,390.180 226.464,390.400 226.600 C 390.784 226.837,390.960 226.326,390.837 225.330 C 390.805 225.072,390.964 224.746,391.189 224.607 C 391.415 224.467,391.600 224.003,391.600 223.576 C 391.600 223.149,391.780 222.800,392.000 222.800 C 392.220 222.800,392.400 222.530,392.400 222.200 C 392.400 221.870,392.546 221.600,392.724 221.600 C 392.903 221.600,393.279 220.700,393.561 219.601 C 393.843 218.501,394.237 217.501,394.437 217.377 C 394.637 217.254,394.800 216.713,394.800 216.176 C 394.800 215.639,394.980 215.200,395.200 215.200 C 395.420 215.200,395.600 214.660,395.600 214.000 C 395.600 213.340,395.760 212.800,395.956 212.800 C 396.152 212.800,396.414 212.215,396.537 211.500 C 397.078 208.372,397.332 207.386,397.649 207.180 C 397.835 207.059,398.019 206.122,398.058 205.096 C 398.097 204.071,398.280 203.326,398.464 203.440 C 398.649 203.554,398.800 202.953,398.800 202.104 C 398.800 201.255,399.025 200.335,399.300 200.060 C 400.010 199.351,400.018 167.398,399.309 164.800 C 398.787 162.889,398.446 161.142,398.118 158.702 C 398.007 157.878,397.755 157.304,397.558 157.426 C 397.361 157.548,397.200 156.837,397.200 155.847 C 397.200 154.857,397.020 153.936,396.800 153.800 C 396.580 153.664,396.400 153.023,396.400 152.376 C 396.400 151.729,396.220 151.200,396.000 151.200 C 395.780 151.200,395.600 150.750,395.600 150.200 C 395.600 149.650,395.420 149.200,395.200 149.200 C 394.980 149.200,394.800 148.831,394.800 148.381 C 394.800 147.930,394.440 146.816,394.000 145.906 C 393.560 144.995,393.200 144.003,393.200 143.701 C 393.200 143.400,393.020 143.264,392.800 143.400 C 392.580 143.536,392.400 143.304,392.400 142.885 C 392.400 142.466,392.113 141.547,391.762 140.844 C 391.411 140.141,391.086 139.308,391.040 138.994 C 390.994 138.680,390.831 138.298,390.678 138.145 C 390.525 137.992,390.400 137.537,390.400 137.133 C 390.400 136.730,390.220 136.400,390.000 136.400 C 389.780 136.400,389.600 136.117,389.600 135.771 C 389.600 135.426,389.328 134.871,388.996 134.539 C 388.664 134.207,388.512 133.742,388.658 133.506 C 388.804 133.270,388.747 133.186,388.530 133.319 C 388.314 133.453,387.835 132.876,387.465 132.038 C 387.095 131.199,386.438 130.105,386.004 129.605 C 385.571 129.105,385.313 128.540,385.432 128.348 C 385.550 128.157,385.457 128.000,385.224 128.000 C 384.991 128.000,384.800 127.822,384.800 127.605 C 384.800 127.233,384.040 126.185,382.900 124.984 C 382.625 124.694,382.400 124.256,382.400 124.010 C 382.400 123.765,381.947 123.110,381.392 122.556 C 380.838 122.002,380.506 121.352,380.654 121.112 C 380.815 120.851,380.738 120.791,380.462 120.962 C 380.208 121.119,380.000 121.072,380.000 120.858 C 380.000 120.644,379.415 119.848,378.700 119.089 C 377.985 118.330,376.950 117.126,376.400 116.414 C 375.850 115.702,374.725 114.424,373.900 113.575 C 373.075 112.726,372.400 111.850,372.400 111.628 C 372.400 111.406,372.099 111.341,371.731 111.482 C 371.223 111.677,371.123 111.577,371.318 111.069 C 371.459 110.701,371.445 110.400,371.287 110.400 C 371.128 110.400,369.676 109.141,368.058 107.602 C 366.441 106.063,364.929 104.921,364.697 105.064 C 364.466 105.207,364.388 105.143,364.525 104.922 C 364.661 104.701,364.286 104.268,363.692 103.960 C 362.151 103.161,361.200 102.303,361.200 101.711 C 361.200 101.430,360.880 101.200,360.488 101.200 C 360.097 101.200,359.517 100.840,359.200 100.400 C 358.883 99.960,358.383 99.600,358.088 99.600 C 357.794 99.600,357.664 99.420,357.800 99.200 C 357.936 98.980,357.677 98.800,357.224 98.800 C 356.771 98.800,356.400 98.620,356.400 98.400 C 356.400 98.180,356.140 98.000,355.823 98.000 C 355.505 98.000,355.010 97.679,354.723 97.287 C 354.435 96.895,353.257 96.113,352.104 95.550 C 350.951 94.987,350.104 94.429,350.222 94.311 C 350.341 94.193,349.934 93.970,349.319 93.817 C 348.703 93.663,347.901 93.268,347.535 92.939 C 346.912 92.377,346.108 92.103,344.876 92.031 C 344.588 92.014,344.467 91.816,344.606 91.590 C 344.745 91.365,344.711 91.206,344.530 91.237 C 343.622 91.395,342.781 91.155,343.000 90.800 C 343.136 90.580,342.972 90.400,342.636 90.400 C 342.299 90.400,341.378 90.037,340.589 89.594 C 339.799 89.150,338.713 88.751,338.176 88.706 C 337.639 88.662,337.200 88.485,337.200 88.313 C 337.200 88.141,336.930 88.000,336.600 88.000 C 336.270 88.000,336.000 87.820,336.000 87.600 C 336.000 87.380,335.561 87.200,335.024 87.200 C 334.487 87.200,333.936 87.020,333.800 86.800 C 333.664 86.580,333.023 86.400,332.376 86.400 C 331.729 86.400,331.200 86.220,331.200 86.000 C 331.200 85.780,330.750 85.600,330.200 85.600 C 329.650 85.600,329.200 85.420,329.200 85.200 C 329.200 84.980,328.671 84.800,328.024 84.800 C 327.377 84.800,326.736 84.620,326.600 84.400 C 326.464 84.180,325.733 84.000,324.976 84.000 C 324.219 84.000,323.600 83.820,323.600 83.600 C 323.600 83.380,323.465 83.221,323.300 83.247 C 322.048 83.445,319.595 83.132,319.800 82.800 C 319.952 82.553,319.271 82.400,318.024 82.400 C 316.675 82.400,315.998 82.233,315.994 81.900 C 315.990 81.553,315.877 81.576,315.624 81.974 C 315.347 82.412,315.130 82.440,314.711 82.092 C 314.409 81.841,313.495 81.591,312.681 81.536 C 311.866 81.481,311.200 81.239,311.200 80.998 C 311.200 80.326,310.238 78.407,309.900 78.403 C 309.735 78.401,309.600 78.130,309.600 77.800 C 309.600 77.470,309.420 77.200,309.200 77.200 C 308.980 77.200,308.797 76.795,308.794 76.300 C 308.789 75.572,308.714 75.515,308.400 76.000 C 308.083 76.491,308.011 76.445,308.006 75.749 C 308.003 75.281,307.726 74.670,307.390 74.392 C 307.055 74.114,306.873 73.793,306.987 73.680 C 307.100 73.566,306.977 73.213,306.712 72.894 C 306.448 72.575,306.044 72.000,305.816 71.615 C 304.969 70.188,303.254 67.710,302.735 67.164 C 302.441 66.854,301.948 66.111,301.640 65.514 C 301.332 64.916,300.927 64.522,300.740 64.637 C 300.553 64.753,300.400 64.653,300.400 64.417 C 300.400 64.180,299.815 63.377,299.100 62.632 C 298.385 61.888,296.810 60.159,295.600 58.791 C 294.390 57.423,292.995 55.899,292.500 55.406 C 292.005 54.912,291.600 54.381,291.600 54.226 C 291.600 53.780,290.504 52.800,290.005 52.800 C 289.756 52.800,289.664 52.620,289.800 52.400 C 289.936 52.180,289.756 52.000,289.400 52.000 C 289.044 52.000,288.864 51.820,289.000 51.600 C 289.136 51.380,289.029 51.200,288.762 51.200 C 288.495 51.200,287.602 50.492,286.779 49.626 C 285.955 48.760,285.203 48.130,285.108 48.225 C 285.013 48.321,284.694 47.949,284.400 47.399 C 284.106 46.850,283.611 46.400,283.301 46.400 C 282.991 46.400,282.046 45.680,281.200 44.800 C 280.354 43.920,279.463 43.200,279.219 43.200 C 278.975 43.200,278.671 42.930,278.545 42.600 C 278.418 42.270,278.013 42.000,277.646 42.000 C 277.278 42.000,276.717 41.640,276.400 41.200 C 276.083 40.760,275.583 40.400,275.288 40.400 C 274.994 40.400,274.864 40.220,275.000 40.000 C 275.136 39.780,274.866 39.600,274.400 39.600 C 273.934 39.600,273.664 39.420,273.800 39.200 C 273.936 38.980,273.829 38.800,273.561 38.800 C 273.294 38.800,272.496 38.358,271.787 37.817 C 271.079 37.277,270.387 36.947,270.249 37.084 C 270.112 37.221,270.000 37.123,270.000 36.867 C 270.000 36.610,269.700 36.400,269.333 36.400 C 268.967 36.400,268.782 36.285,268.923 36.144 C 269.178 35.889,267.943 35.111,265.100 33.737 C 264.275 33.338,263.600 32.874,263.600 32.706 C 263.600 32.538,263.323 32.400,262.984 32.400 C 262.357 32.400,259.911 30.850,259.666 30.298 C 259.592 30.131,259.382 30.088,259.198 30.201 C 259.015 30.315,258.625 30.179,258.332 29.899 C 257.578 29.179,255.602 28.352,255.212 28.593 C 255.031 28.704,254.781 28.526,254.654 28.198 C 254.528 27.869,254.183 27.600,253.887 27.600 C 253.592 27.600,252.371 27.125,251.175 26.545 C 249.979 25.965,248.730 25.458,248.400 25.419 C 247.098 25.263,245.600 24.695,245.600 24.357 C 245.600 24.160,245.251 24.000,244.824 24.000 C 244.397 24.000,243.936 23.820,243.800 23.600 C 243.664 23.380,243.124 23.200,242.600 23.200 C 242.076 23.200,241.536 23.020,241.400 22.800 C 241.264 22.580,240.713 22.400,240.176 22.400 C 239.639 22.400,239.200 22.220,239.200 22.000 C 239.200 21.780,238.570 21.600,237.800 21.600 C 237.030 21.600,236.400 21.420,236.400 21.200 C 236.400 20.980,236.265 20.821,236.100 20.847 C 234.958 21.028,233.193 20.735,233.400 20.400 C 233.547 20.162,233.079 20.000,232.247 20.000 C 231.477 20.000,230.736 19.820,230.600 19.600 C 230.464 19.380,229.744 19.200,229.000 19.200 C 228.256 19.200,227.536 19.020,227.400 18.800 C 227.264 18.580,226.263 18.400,225.176 18.400 C 224.089 18.400,223.200 18.220,223.200 18.000 C 223.200 17.778,222.144 17.600,220.833 17.600 C 219.532 17.600,218.407 17.431,218.333 17.226 C 218.260 17.020,216.670 16.814,214.800 16.769 C 212.851 16.722,211.272 16.497,211.100 16.243 C 210.892 15.936,210.679 15.984,210.406 16.400 C 210.189 16.730,210.009 16.804,210.006 16.565 C 210.002 16.281,208.306 16.102,205.100 16.047 L 200.200 15.964 200.200 112.721 M194.668 203.106 C 194.794 203.605,195.055 204.110,195.248 204.230 C 195.796 204.568,195.662 203.836,195.020 202.976 C 194.460 202.227,194.448 202.232,194.668 203.106 " stroke="none" fill="#2494f4" fill-rule="evenodd"></path><path id="path3" d="M189.048 16.620 C 188.879 17.060,189.840 17.146,194.220 17.080 L 199.600 17.000 199.600 113.100 C 199.600 176.900,199.466 209.200,199.200 209.200 C 198.980 209.200,198.821 209.605,198.846 210.100 C 198.881 210.777,198.938 210.827,199.076 210.300 C 199.176 209.915,199.425 209.600,199.629 209.600 C 199.856 209.600,200.000 171.954,200.000 112.784 L 200.000 15.968 196.100 16.028 C 193.955 16.061,191.983 16.264,191.718 16.478 C 191.452 16.693,191.002 16.723,190.718 16.546 C 189.872 16.017,189.269 16.044,189.048 16.620 M183.294 17.083 C 181.814 17.368,182.708 18.000,184.591 18.000 C 186.795 18.000,187.894 17.633,187.134 17.150 C 186.586 16.804,184.902 16.774,183.294 17.083 M177.417 18.275 C 178.079 18.936,180.468 18.797,180.706 18.083 C 180.813 17.761,180.231 17.627,178.854 17.658 C 177.115 17.697,176.923 17.780,177.417 18.275 M174.634 18.855 C 174.731 19.011,174.493 19.222,174.105 19.323 C 173.717 19.424,174.075 19.528,174.900 19.554 C 175.982 19.587,176.400 19.434,176.400 19.004 C 176.400 18.619,176.058 18.437,175.429 18.489 C 174.895 18.534,174.537 18.698,174.634 18.855 M170.800 19.596 C 170.800 19.844,170.575 19.920,170.300 19.765 C 169.923 19.552,169.911 19.603,170.254 19.975 C 170.773 20.539,172.600 20.402,172.600 19.800 C 172.600 19.580,172.195 19.342,171.700 19.272 C 171.205 19.202,170.800 19.348,170.800 19.596 M167.200 20.628 C 167.200 21.045,167.492 21.213,168.069 21.128 C 169.349 20.939,169.486 20.000,168.233 20.000 C 167.561 20.000,167.200 20.219,167.200 20.628 M166.359 20.574 C 166.264 20.670,165.701 20.813,165.108 20.892 C 164.515 20.971,163.903 21.163,163.748 21.318 C 163.593 21.473,163.047 21.600,162.533 21.600 C 161.942 21.600,161.600 21.836,161.600 22.243 C 161.600 22.949,163.562 22.708,164.034 21.945 C 164.167 21.730,164.729 21.667,165.284 21.807 C 166.024 21.992,166.362 21.877,166.555 21.373 C 166.814 20.697,166.701 20.233,166.359 20.574 M160.451 22.367 C 160.149 22.554,159.969 22.903,160.051 23.141 C 160.141 23.402,160.418 23.439,160.749 23.233 C 161.051 23.046,161.231 22.697,161.149 22.459 C 161.059 22.198,160.782 22.161,160.451 22.367 M157.900 23.357 C 156.972 24.061,157.014 24.374,158.000 24.116 C 158.440 24.001,158.800 23.658,158.800 23.353 C 158.800 22.686,158.783 22.687,157.900 23.357 M154.151 24.582 C 153.255 25.551,153.204 25.924,153.995 25.717 C 154.433 25.603,154.692 25.350,154.572 25.155 C 154.451 24.960,154.914 24.800,155.600 24.800 C 156.317 24.800,156.744 24.632,156.604 24.406 C 156.297 23.909,154.663 24.026,154.151 24.582 M151.592 25.410 C 151.314 25.745,151.006 25.940,150.909 25.843 C 150.696 25.630,149.200 26.863,149.200 27.251 C 149.200 27.402,149.560 27.431,150.000 27.316 C 150.440 27.201,150.800 26.948,150.800 26.753 C 150.800 26.559,151.149 26.400,151.575 26.400 C 152.104 26.400,152.331 26.146,152.290 25.600 C 152.218 24.641,152.228 24.644,151.592 25.410 M146.932 27.628 C 146.697 27.863,146.229 28.096,145.893 28.145 C 145.556 28.195,145.038 28.409,144.740 28.622 C 143.617 29.425,141.600 30.435,141.600 30.194 C 141.600 30.056,141.315 30.227,140.968 30.575 C 140.620 30.923,140.169 31.104,139.965 30.978 C 139.761 30.852,139.486 31.031,139.354 31.375 C 139.222 31.719,138.864 32.000,138.557 32.000 C 138.251 32.000,138.000 32.180,138.000 32.400 C 138.000 32.620,138.270 32.800,138.600 32.800 C 138.930 32.800,139.200 32.620,139.200 32.400 C 139.200 32.180,139.560 32.000,140.000 32.000 C 140.440 32.000,140.801 31.865,140.801 31.700 C 140.802 31.535,141.792 30.950,143.000 30.400 C 144.208 29.850,145.198 29.265,145.199 29.100 C 145.199 28.935,145.549 28.800,145.976 28.800 C 146.403 28.800,146.864 28.620,147.000 28.400 C 147.136 28.180,147.607 28.000,148.047 28.000 C 148.487 28.000,148.736 27.820,148.600 27.600 C 148.277 27.077,147.470 27.090,146.932 27.628 M137.200 32.424 C 137.200 32.657,137.020 32.736,136.800 32.600 C 136.580 32.464,136.400 32.543,136.400 32.776 C 136.400 33.009,136.130 33.200,135.800 33.200 C 135.470 33.200,135.200 33.380,135.200 33.600 C 135.200 33.820,134.834 34.000,134.387 34.000 C 133.918 34.000,133.421 34.381,133.212 34.900 C 133.013 35.395,132.839 35.535,132.825 35.211 C 132.808 34.808,132.603 34.903,132.177 35.511 C 131.835 36.000,131.194 36.400,130.754 36.400 C 130.313 36.400,130.064 36.580,130.200 36.800 C 130.336 37.020,130.212 37.200,129.924 37.200 C 129.636 37.201,128.882 37.647,128.248 38.192 C 127.614 38.737,126.911 39.069,126.686 38.930 C 126.451 38.784,126.398 38.873,126.562 39.138 C 126.731 39.412,126.593 39.600,126.224 39.600 C 125.881 39.600,125.600 39.780,125.600 40.000 C 125.600 40.220,125.240 40.400,124.800 40.400 C 124.267 40.400,124.000 40.667,124.000 41.200 C 124.000 41.640,123.764 42.000,123.475 42.000 C 123.187 42.000,122.598 42.329,122.167 42.730 C 121.736 43.132,121.178 43.393,120.928 43.309 C 120.678 43.226,120.339 43.375,120.175 43.641 C 119.985 43.947,120.045 44.019,120.338 43.838 C 120.592 43.681,120.800 43.743,120.800 43.976 C 120.800 44.209,120.564 44.400,120.275 44.400 C 119.987 44.400,119.357 44.767,118.875 45.216 C 118.394 45.664,118.000 45.955,118.000 45.863 C 118.000 45.770,117.323 46.348,116.496 47.147 C 115.669 47.946,114.364 49.179,113.596 49.886 C 112.828 50.594,111.963 51.404,111.674 51.686 C 107.145 56.113,106.127 57.194,106.313 57.380 C 106.434 57.501,106.233 57.600,105.867 57.600 C 105.451 57.600,105.188 57.939,105.168 58.500 C 105.151 58.995,105.047 59.177,104.936 58.904 C 104.678 58.264,103.600 59.260,103.600 60.138 C 103.600 60.465,103.375 60.814,103.100 60.912 C 102.816 61.013,102.750 61.244,102.947 61.445 C 103.147 61.650,103.486 61.496,103.747 61.082 C 104.423 60.010,117.111 47.244,117.306 47.439 C 117.398 47.532,118.005 47.099,118.655 46.478 C 119.305 45.858,120.863 44.574,122.118 43.627 C 123.373 42.679,124.400 41.731,124.400 41.519 C 124.400 41.307,124.618 41.206,124.885 41.295 C 125.152 41.384,125.758 41.039,126.231 40.528 C 126.705 40.018,127.268 39.600,127.484 39.600 C 127.700 39.600,128.198 39.244,128.591 38.809 C 128.985 38.375,129.436 38.098,129.593 38.196 C 129.750 38.293,130.259 38.019,130.723 37.586 C 131.187 37.154,131.767 36.800,132.012 36.800 C 132.590 36.800,133.600 35.786,133.600 35.205 C 133.600 34.956,133.763 34.853,133.962 34.977 C 134.593 35.366,137.600 33.506,137.600 32.726 C 137.600 32.327,137.510 32.000,137.400 32.000 C 137.290 32.000,137.200 32.191,137.200 32.424 M101.680 62.080 C 101.416 62.344,101.200 62.794,101.200 63.080 C 101.200 63.366,100.919 63.600,100.576 63.600 C 100.233 63.600,100.064 63.780,100.200 64.000 C 100.336 64.220,100.227 64.400,99.957 64.400 C 99.687 64.400,99.575 64.508,99.706 64.640 C 99.838 64.772,99.418 65.396,98.773 66.026 C 98.128 66.657,97.600 67.328,97.600 67.517 C 97.600 67.706,97.150 68.283,96.600 68.800 C 96.050 69.317,95.600 69.935,95.600 70.174 C 95.600 70.413,95.161 71.082,94.624 71.661 C 94.087 72.240,93.757 72.823,93.890 72.957 C 94.024 73.091,93.823 73.200,93.443 73.200 C 93.063 73.200,92.855 73.365,92.980 73.568 C 93.105 73.770,92.918 74.225,92.565 74.578 C 92.159 74.984,92.033 75.474,92.223 75.910 C 92.495 76.534,92.542 76.524,92.709 75.806 C 92.811 75.369,93.234 74.718,93.647 74.359 C 94.061 74.000,94.400 73.502,94.400 73.253 C 94.400 73.004,94.550 72.800,94.732 72.800 C 94.915 72.800,95.320 72.305,95.632 71.700 C 95.945 71.095,96.605 70.152,97.100 69.604 C 97.595 69.056,98.000 68.499,98.000 68.366 C 98.000 68.233,98.450 67.601,99.000 66.962 C 99.549 66.323,99.999 65.668,100.000 65.507 C 100.000 65.346,100.630 64.566,101.400 63.773 C 102.755 62.377,103.142 61.600,102.480 61.600 C 102.304 61.600,101.944 61.816,101.680 62.080 M91.200 77.000 C 91.200 77.330,91.380 77.600,91.600 77.600 C 91.820 77.600,92.000 77.330,92.000 77.000 C 92.000 76.670,91.820 76.400,91.600 76.400 C 91.380 76.400,91.200 76.670,91.200 77.000 M90.083 78.816 C 89.802 79.265,89.699 79.836,89.852 80.084 C 90.035 80.380,89.902 80.448,89.466 80.281 C 89.021 80.110,88.800 80.231,88.800 80.646 C 88.800 81.567,89.670 81.108,90.454 79.772 C 91.517 77.960,91.172 77.071,90.083 78.816 M88.000 82.213 C 88.000 82.860,88.625 83.007,88.974 82.442 C 89.096 82.245,88.926 81.981,88.598 81.854 C 88.235 81.715,88.000 81.856,88.000 82.213 M87.200 83.751 C 87.200 84.328,87.020 84.800,86.800 84.800 C 86.580 84.800,86.400 85.070,86.400 85.400 C 86.400 86.346,86.941 86.099,87.668 84.820 C 88.243 83.810,88.257 83.579,87.768 83.174 C 87.302 82.787,87.200 82.890,87.200 83.751 M85.600 87.017 C 85.600 87.356,85.240 88.020,84.800 88.492 C 84.360 88.964,84.000 89.727,84.000 90.186 C 84.000 90.646,83.736 91.398,83.414 91.858 C 83.092 92.319,82.952 92.818,83.103 92.969 C 83.253 93.120,83.112 93.407,82.788 93.607 C 82.465 93.807,82.185 94.112,82.166 94.285 C 82.148 94.458,81.936 95.072,81.696 95.649 C 81.016 97.280,80.955 98.101,81.500 98.292 C 81.816 98.402,82.000 98.087,82.000 97.433 C 82.000 96.865,82.180 96.400,82.400 96.400 C 82.620 96.400,82.800 95.950,82.800 95.400 C 82.800 94.850,82.980 94.400,83.200 94.400 C 83.420 94.400,83.600 94.121,83.600 93.781 C 83.600 93.440,83.955 92.426,84.390 91.526 C 84.824 90.627,85.096 89.755,84.992 89.588 C 84.889 89.420,85.074 89.181,85.402 89.054 C 85.731 88.928,86.000 88.549,86.000 88.213 C 86.000 87.876,86.180 87.600,86.400 87.600 C 86.620 87.600,86.800 87.330,86.800 87.000 C 86.800 86.670,86.530 86.400,86.200 86.400 C 85.870 86.400,85.600 86.678,85.600 87.017 M80.354 98.676 C 80.328 98.854,80.283 99.231,80.254 99.513 C 80.224 99.796,80.020 100.156,79.800 100.313 C 79.185 100.754,79.226 102.400,79.852 102.400 C 80.170 102.400,80.400 101.980,80.400 101.400 C 80.400 100.850,80.580 100.400,80.800 100.400 C 81.020 100.400,81.200 100.051,81.200 99.624 C 81.200 98.870,80.447 98.027,80.354 98.676 M78.600 103.967 C 78.663 104.535,78.556 105.099,78.363 105.220 C 78.169 105.341,77.930 106.061,77.832 106.820 C 77.734 107.579,77.621 108.290,77.580 108.400 C 77.539 108.510,77.527 108.735,77.553 108.900 C 77.579 109.065,77.420 109.200,77.200 109.200 C 76.657 109.200,76.691 110.286,77.245 110.628 C 77.866 111.012,78.315 110.136,78.093 108.974 C 77.977 108.369,78.093 108.000,78.399 108.000 C 78.721 108.000,78.828 107.574,78.709 106.763 C 78.591 105.960,78.716 105.454,79.064 105.320 C 79.787 105.043,79.768 102.933,79.043 102.933 C 78.680 102.933,78.525 103.295,78.600 103.967 M76.854 111.724 C 76.825 112.122,76.622 112.337,76.405 112.203 C 76.184 112.066,76.107 112.215,76.232 112.539 C 76.354 112.858,76.234 113.255,75.965 113.421 C 75.654 113.614,75.579 113.557,75.759 113.266 C 75.942 112.971,75.822 112.893,75.421 113.047 C 74.452 113.419,74.691 114.000,75.813 114.000 C 76.939 114.000,77.353 113.327,77.086 111.929 C 76.965 111.296,76.892 111.231,76.854 111.724 M69.700 113.893 C 68.595 114.276,69.311 114.677,71.220 114.745 C 72.574 114.793,73.442 114.615,73.849 114.208 C 74.393 113.664,74.265 113.600,72.629 113.600 C 71.436 113.600,70.798 113.774,70.794 114.100 C 70.790 114.446,70.697 114.464,70.494 114.160 C 70.332 113.918,69.975 113.798,69.700 113.893 M66.800 115.000 L 65.800 115.572 67.300 115.586 C 68.373 115.596,68.800 115.429,68.800 115.000 C 68.800 114.255,68.104 114.255,66.800 115.000 M63.700 115.482 C 62.849 115.796,63.149 116.400,64.157 116.400 C 65.227 116.400,65.892 115.383,64.856 115.330 C 64.495 115.312,63.975 115.380,63.700 115.482 M60.498 116.266 C 59.734 116.574,60.326 117.200,61.381 117.200 C 61.894 117.200,62.418 116.930,62.545 116.600 C 62.777 115.995,61.633 115.808,60.498 116.266 M58.200 117.442 C 57.431 118.033,57.447 118.052,58.600 117.929 C 59.260 117.858,59.769 117.625,59.730 117.410 C 59.616 116.775,59.053 116.786,58.200 117.442 M55.862 118.217 C 56.124 118.900,56.861 118.816,57.108 118.075 C 57.196 117.811,56.902 117.600,56.446 117.600 C 55.871 117.600,55.696 117.785,55.862 118.217 M54.400 118.824 C 54.400 119.057,54.224 119.138,54.008 119.005 C 53.530 118.710,52.000 119.479,52.000 120.014 C 52.000 120.226,52.270 120.400,52.600 120.400 C 52.930 120.400,53.200 120.220,53.200 120.000 C 53.200 119.780,53.650 119.600,54.200 119.600 C 54.822 119.600,55.200 119.373,55.200 119.000 C 55.200 118.670,55.020 118.400,54.800 118.400 C 54.580 118.400,54.400 118.591,54.400 118.824 M51.060 119.902 C 50.903 120.157,50.465 120.248,50.087 120.105 C 49.469 119.871,49.472 119.918,50.126 120.577 C 50.901 121.359,51.846 120.937,51.518 119.955 C 51.392 119.577,51.270 119.563,51.060 119.902 M48.000 121.200 C 48.000 121.420,47.706 121.600,47.347 121.600 C 46.988 121.600,46.358 121.988,45.947 122.461 C 45.536 122.935,45.194 123.160,45.187 122.961 C 45.180 122.763,44.903 122.959,44.571 123.398 C 44.138 123.972,43.885 124.061,43.670 123.714 C 43.458 123.369,43.233 123.456,42.883 124.016 C 42.188 125.128,42.680 125.013,46.562 123.150 C 50.081 121.461,50.767 120.800,49.000 120.800 C 48.450 120.800,48.000 120.980,48.000 121.200 M41.029 125.429 C 40.605 125.738,40.348 126.082,40.458 126.192 C 40.568 126.302,41.005 126.138,41.429 125.829 C 41.852 125.519,42.109 125.175,41.999 125.065 C 41.889 124.955,41.452 125.119,41.029 125.429 M39.632 125.835 C 39.614 126.074,38.593 126.779,37.362 127.402 C 36.131 128.025,35.032 128.773,34.920 129.065 C 34.808 129.357,34.591 129.518,34.438 129.424 C 34.285 129.329,33.948 129.592,33.688 130.007 C 32.928 131.225,33.798 131.279,35.056 130.092 C 35.693 129.491,36.661 128.767,37.207 128.482 C 39.047 127.522,40.108 126.522,39.884 125.958 C 39.763 125.651,39.649 125.596,39.632 125.835 M32.400 130.487 C 32.400 131.185,30.374 132.831,29.886 132.530 C 29.651 132.384,29.598 132.473,29.762 132.738 C 29.919 132.992,29.883 133.200,29.682 133.200 C 29.211 133.200,24.000 138.377,24.000 138.845 C 24.000 139.469,24.447 139.232,25.791 137.900 C 28.437 135.276,30.800 133.163,30.800 133.420 C 30.800 133.566,31.331 133.116,31.980 132.422 C 32.639 131.716,33.061 130.904,32.937 130.580 C 32.666 129.873,32.400 129.827,32.400 130.487 M22.500 139.977 C 22.005 140.390,21.600 140.935,21.600 141.188 C 21.600 141.440,21.420 141.536,21.200 141.400 C 20.979 141.263,20.800 141.551,20.800 142.043 C 20.800 142.533,20.680 142.814,20.534 142.668 C 20.257 142.391,17.601 145.158,17.600 145.724 C 17.600 145.902,17.392 145.919,17.138 145.762 C 16.884 145.605,16.774 145.639,16.893 145.838 C 17.011 146.037,16.769 146.827,16.354 147.594 C 15.939 148.360,15.600 148.848,15.600 148.678 C 15.600 148.508,15.353 148.600,15.050 148.882 C 14.748 149.165,14.587 149.622,14.693 149.898 C 14.799 150.174,14.596 150.400,14.243 150.400 C 13.889 150.400,13.600 150.659,13.600 150.975 C 13.600 151.292,13.060 152.142,12.400 152.864 C 11.740 153.587,11.200 154.575,11.200 155.061 C 11.200 155.546,10.930 156.213,10.600 156.543 C 10.270 156.873,10.000 157.271,10.000 157.427 C 10.000 157.584,9.714 157.921,9.364 158.177 C 8.782 158.602,8.782 158.687,9.364 159.170 C 9.903 159.618,10.000 159.594,10.000 159.011 C 10.000 158.428,11.264 156.253,11.981 155.600 C 12.102 155.490,12.471 154.860,12.800 154.200 C 13.129 153.540,13.489 152.910,13.600 152.800 C 13.711 152.690,14.038 152.140,14.326 151.578 C 14.615 151.016,15.380 149.991,16.026 149.300 C 16.672 148.609,17.201 147.899,17.202 147.722 C 17.203 147.545,17.699 146.860,18.304 146.200 C 20.616 143.677,22.800 140.870,22.800 140.421 C 22.800 140.163,22.980 140.064,23.200 140.200 C 23.420 140.336,23.600 140.167,23.600 139.824 C 23.600 139.057,23.604 139.056,22.500 139.977 M8.069 160.516 C 7.745 160.907,7.831 161.047,8.420 161.092 C 8.859 161.125,9.200 160.899,9.200 160.575 C 9.200 159.860,8.638 159.831,8.069 160.516 M6.801 163.599 C 6.286 164.698,5.995 165.728,6.154 165.887 C 6.484 166.217,7.238 165.184,6.976 164.761 C 6.882 164.609,7.071 164.382,7.396 164.257 C 7.721 164.132,7.889 163.777,7.770 163.467 C 7.651 163.157,7.846 162.791,8.202 162.654 C 8.559 162.518,8.739 162.224,8.602 162.003 C 8.135 161.247,7.737 161.599,6.801 163.599 M4.938 167.403 C 4.631 168.064,4.612 168.484,4.880 168.650 C 5.139 168.809,5.107 169.010,4.791 169.205 C 4.520 169.373,4.423 169.714,4.576 169.962 C 4.995 170.639,5.698 170.019,5.476 169.170 C 5.370 168.762,5.523 168.230,5.818 167.985 C 6.325 167.565,6.206 166.396,5.657 166.403 C 5.516 166.405,5.192 166.855,4.938 167.403 M3.784 171.411 C 3.642 171.845,3.345 172.684,3.124 173.276 C 2.649 174.550,3.103 175.675,3.677 174.648 C 3.878 174.288,3.926 173.804,3.782 173.572 C 3.639 173.340,3.800 172.842,4.141 172.466 C 4.549 172.014,4.638 171.585,4.401 171.202 C 4.106 170.724,3.997 170.761,3.784 171.411 M2.000 177.449 C 2.000 178.336,2.093 178.421,2.600 178.000 C 2.930 177.726,3.200 177.254,3.200 176.951 C 3.200 176.648,2.930 176.400,2.600 176.400 C 2.219 176.400,2.000 176.783,2.000 177.449 M1.360 180.036 C 1.408 181.443,2.105 181.609,2.286 180.256 C 2.359 179.708,2.179 179.201,1.868 179.081 C 1.477 178.931,1.331 179.204,1.360 180.036 M0.582 183.468 C 0.592 184.531,0.780 185.490,1.000 185.600 C 1.619 185.909,1.703 183.092,1.100 182.268 C 0.626 181.620,0.566 181.758,0.582 183.468 M156.200 183.230 C 155.194 183.625,155.586 183.713,158.686 183.789 C 160.543 183.834,161.075 183.731,160.785 183.382 C 160.346 182.853,157.411 182.756,156.200 183.230 M149.356 184.170 C 149.201 184.575,148.741 184.675,147.769 184.517 C 146.650 184.336,146.400 184.422,146.400 184.990 C 146.400 185.491,146.596 185.608,147.100 185.409 C 147.813 185.126,149.346 184.873,151.272 184.720 C 151.862 184.673,152.265 184.505,152.167 184.347 C 152.070 184.190,152.307 183.978,152.695 183.877 C 153.083 183.776,152.539 183.672,151.487 183.646 C 150.168 183.614,149.507 183.777,149.356 184.170 M163.600 184.200 C 163.600 184.644,164.067 184.800,165.400 184.800 C 166.733 184.800,167.200 184.644,167.200 184.200 C 167.200 183.756,166.733 183.600,165.400 183.600 C 164.067 183.600,163.600 183.756,163.600 184.200 M167.600 184.776 C 167.600 184.983,167.808 185.281,168.062 185.438 C 168.348 185.615,168.415 185.548,168.238 185.262 C 168.081 185.008,168.143 184.800,168.376 184.800 C 168.609 184.800,168.800 184.942,168.800 185.115 C 168.800 185.288,169.160 185.457,169.600 185.490 C 170.057 185.524,170.400 185.304,170.400 184.975 C 170.400 184.585,169.951 184.400,169.000 184.400 C 168.230 184.400,167.600 184.569,167.600 184.776 M143.826 185.558 C 143.560 185.989,144.401 186.352,145.100 186.108 C 145.375 186.012,145.600 185.768,145.600 185.567 C 145.600 185.094,144.117 185.087,143.826 185.558 M170.898 185.694 C 170.989 185.966,171.573 186.227,172.196 186.275 C 172.819 186.323,173.435 186.519,173.565 186.710 C 174.117 187.528,175.200 187.579,175.200 186.787 C 175.200 186.179,174.927 186.000,174.000 186.000 C 173.340 186.000,172.800 185.820,172.800 185.600 C 172.800 185.380,172.335 185.200,171.767 185.200 C 171.125 185.200,170.796 185.387,170.898 185.694 M141.688 186.465 C 141.915 187.144,143.200 187.229,143.200 186.565 C 143.200 186.254,142.825 186.000,142.367 186.000 C 141.908 186.000,141.603 186.209,141.688 186.465 M139.754 187.375 C 139.633 187.691,139.312 187.864,139.041 187.760 C 138.399 187.514,136.220 188.641,136.729 188.956 C 137.349 189.340,139.528 188.764,139.762 188.155 C 139.879 187.850,140.341 187.600,140.787 187.600 C 141.234 187.600,141.600 187.420,141.600 187.200 C 141.600 186.578,140.002 186.729,139.754 187.375 M175.600 187.418 C 175.600 187.757,175.825 187.992,176.100 187.939 C 176.687 187.826,178.511 188.390,178.800 188.773 C 179.252 189.374,181.469 190.732,182.207 190.861 C 182.643 190.938,183.291 191.315,183.647 191.700 C 184.003 192.085,184.588 192.400,184.947 192.400 C 185.306 192.400,185.555 192.625,185.500 192.900 C 185.445 193.175,185.580 193.373,185.800 193.340 C 186.331 193.260,192.813 199.854,192.506 200.161 C 192.374 200.293,192.586 200.400,192.976 200.400 C 193.442 200.400,193.607 200.606,193.455 201.000 C 193.329 201.330,193.372 201.600,193.551 201.600 C 193.956 201.600,195.662 203.055,195.626 203.370 C 195.525 204.262,195.643 204.890,195.870 204.663 C 196.201 204.332,197.570 206.343,197.431 206.957 C 197.376 207.201,197.407 207.264,197.500 207.098 C 197.786 206.584,198.378 207.192,198.155 207.772 C 197.940 208.333,198.680 209.053,199.070 208.663 C 199.349 208.385,198.303 206.000,197.902 206.000 C 197.736 206.000,197.600 205.730,197.600 205.400 C 197.600 205.070,197.420 204.800,197.200 204.800 C 196.980 204.800,196.800 204.599,196.800 204.353 C 196.800 202.204,187.243 192.728,182.500 190.174 C 181.345 189.552,180.400 188.898,180.400 188.721 C 180.400 188.545,180.040 188.400,179.600 188.400 C 179.160 188.400,178.800 188.220,178.800 188.000 C 178.800 187.780,178.451 187.600,178.024 187.600 C 177.597 187.600,177.136 187.420,177.000 187.200 C 176.613 186.574,175.600 186.731,175.600 187.418 M0.058 190.259 C -0.006 192.277,0.100 193.185,0.381 193.012 C 0.869 192.710,0.955 187.743,0.477 187.448 C 0.300 187.338,0.111 188.603,0.058 190.259 M135.200 189.733 C 135.200 190.027,135.440 190.267,135.733 190.267 C 136.027 190.267,136.267 190.027,136.267 189.733 C 136.267 189.440,136.027 189.200,135.733 189.200 C 135.440 189.200,135.200 189.440,135.200 189.733 M133.200 190.800 C 132.883 191.240,132.393 191.600,132.112 191.600 C 131.830 191.600,131.600 191.780,131.600 192.000 C 131.600 192.220,131.358 192.400,131.062 192.400 C 130.766 192.400,130.197 192.761,129.798 193.202 C 129.398 193.644,128.987 193.921,128.884 193.818 C 128.781 193.715,124.635 197.668,119.669 202.603 C 114.704 207.538,110.763 211.696,110.911 211.845 C 111.278 212.211,112.447 211.200,112.172 210.755 C 111.973 210.433,112.537 210.232,113.300 210.353 C 113.582 210.397,113.754 209.775,113.647 209.100 C 113.621 208.935,113.854 208.800,114.164 208.800 C 114.475 208.800,115.193 208.248,115.761 207.574 C 116.395 206.820,116.986 206.460,117.296 206.638 C 117.573 206.798,117.676 206.790,117.525 206.622 C 117.230 206.294,122.218 201.200,122.833 201.200 C 123.035 201.200,123.200 201.016,123.200 200.791 C 123.200 200.243,126.818 196.624,127.700 196.290 C 128.085 196.144,128.400 195.749,128.400 195.413 C 128.400 195.076,128.670 194.800,129.000 194.800 C 129.330 194.800,129.603 194.665,129.606 194.500 C 129.609 194.335,130.772 193.390,132.189 192.400 C 133.606 191.410,134.774 190.465,134.783 190.300 C 134.818 189.691,133.758 190.025,133.200 190.800 M0.080 206.524 C 0.146 208.392,0.332 209.714,0.494 209.460 C 0.948 208.749,0.853 203.680,0.380 203.387 C 0.095 203.212,-0.002 204.225,0.080 206.524 M0.596 212.100 C 0.650 213.035,0.738 213.800,0.792 213.800 C 0.847 213.800,0.953 214.340,1.028 215.000 C 1.264 217.063,1.609 218.042,2.012 217.793 C 2.549 217.461,2.499 215.859,1.935 215.295 C 1.679 215.039,1.496 214.148,1.528 213.315 C 1.594 211.603,1.303 210.400,0.822 210.400 C 0.644 210.400,0.542 211.165,0.596 212.100 M109.453 212.742 C 109.093 213.140,108.934 213.614,109.099 213.797 C 109.265 213.979,109.205 214.017,108.967 213.882 C 108.514 213.624,95.600 226.474,95.600 227.182 C 95.600 227.406,94.788 228.377,93.796 229.342 C 92.237 230.857,92.074 231.163,92.596 231.597 C 93.094 232.010,93.200 231.980,93.200 231.425 C 93.200 231.055,93.380 230.864,93.600 231.000 C 93.820 231.136,94.000 230.967,94.000 230.624 C 94.000 230.281,94.180 230.000,94.400 230.000 C 94.620 230.000,94.800 229.640,94.800 229.200 C 94.800 228.760,94.997 228.445,95.237 228.500 C 95.478 228.555,95.883 228.248,96.137 227.817 C 96.851 226.609,97.480 226.013,97.752 226.286 C 97.889 226.422,98.000 226.317,98.000 226.053 C 98.000 225.789,98.630 224.943,99.400 224.173 C 100.170 223.403,100.800 222.876,100.800 223.001 C 100.800 223.126,101.226 222.817,101.747 222.314 C 102.268 221.811,102.618 221.265,102.524 221.100 C 102.430 220.935,102.543 220.800,102.776 220.800 C 103.009 220.800,103.155 220.575,103.100 220.300 C 103.044 220.021,103.309 219.852,103.700 219.918 C 104.124 219.989,104.400 219.783,104.400 219.394 C 104.400 219.041,104.561 218.852,104.757 218.974 C 104.954 219.095,105.227 218.746,105.365 218.197 C 105.503 217.649,105.792 217.200,106.008 217.200 C 106.223 217.200,106.400 216.915,106.400 216.567 C 106.400 216.218,106.603 216.001,106.852 216.084 C 107.463 216.288,109.598 214.105,109.606 213.269 C 109.611 212.750,109.688 212.720,109.950 213.134 C 110.224 213.565,110.334 213.548,110.527 213.046 C 110.885 212.114,110.197 211.919,109.453 212.742 M2.273 218.661 C 1.765 219.169,1.996 220.400,2.600 220.400 C 2.930 220.400,3.197 220.175,3.194 219.900 C 3.185 219.155,2.585 218.348,2.273 218.661 M2.905 222.585 C 2.977 223.127,3.147 223.680,3.282 223.815 C 3.627 224.160,4.106 222.494,3.802 222.004 C 3.330 221.240,2.773 221.601,2.905 222.585 M3.800 224.401 C 3.588 224.743,3.637 225.012,3.929 225.110 C 4.188 225.196,4.400 225.972,4.400 226.833 C 4.400 227.695,4.561 228.400,4.757 228.400 C 5.328 228.400,5.619 227.231,5.235 226.484 C 5.041 226.108,4.715 225.361,4.512 224.824 C 4.226 224.073,4.062 223.976,3.800 224.401 M5.200 229.649 C 5.200 230.358,5.299 230.416,5.800 230.000 C 6.130 229.726,6.400 229.344,6.400 229.151 C 6.400 228.958,6.130 228.800,5.800 228.800 C 5.455 228.800,5.200 229.161,5.200 229.649 M6.000 231.400 C 6.000 231.950,6.180 232.400,6.400 232.400 C 6.620 232.400,6.800 232.670,6.800 233.000 C 6.800 233.330,6.999 233.600,7.243 233.600 C 7.486 233.600,7.587 233.857,7.467 234.171 C 7.346 234.485,7.478 234.933,7.761 235.167 C 8.765 236.001,8.753 235.070,7.736 233.249 C 7.169 232.232,6.726 231.355,6.752 231.300 C 6.935 230.918,6.733 230.400,6.400 230.400 C 6.180 230.400,6.000 230.850,6.000 231.400 M91.238 232.559 C 90.659 233.176,90.494 233.611,90.773 233.783 C 91.011 233.930,91.326 233.724,91.474 233.325 C 91.621 232.926,91.930 232.475,92.159 232.322 C 92.389 232.169,92.478 231.944,92.357 231.823 C 92.236 231.702,91.732 232.033,91.238 232.559 M89.206 235.700 C 89.214 236.331,89.975 237.540,90.024 237.000 C 90.045 236.780,90.122 236.285,90.195 235.900 C 90.272 235.501,90.087 235.200,89.765 235.200 C 89.454 235.200,89.203 235.425,89.206 235.700 M8.294 235.839 C 7.974 236.160,8.393 237.200,8.843 237.200 C 9.039 237.200,9.200 236.840,9.200 236.400 C 9.200 235.620,8.776 235.358,8.294 235.839 M88.400 237.200 C 88.400 237.640,88.265 238.001,88.100 238.003 C 87.741 238.007,86.800 239.944,86.800 240.680 C 86.800 240.966,86.620 241.200,86.400 241.200 C 86.180 241.200,86.000 241.650,86.000 242.200 C 86.000 242.750,85.820 243.200,85.600 243.200 C 85.380 243.200,85.200 243.740,85.200 244.400 C 85.200 245.060,85.020 245.600,84.800 245.600 C 84.580 245.600,84.400 246.162,84.400 246.849 C 84.400 247.910,84.490 248.023,84.996 247.604 C 85.323 247.332,85.502 246.964,85.392 246.787 C 85.282 246.610,85.463 246.194,85.793 245.864 C 86.247 245.410,86.272 245.215,85.896 245.063 C 85.575 244.932,85.541 244.745,85.800 244.530 C 86.020 244.349,86.263 243.840,86.340 243.400 C 86.417 242.960,86.597 242.510,86.740 242.400 C 86.883 242.290,87.059 241.930,87.130 241.600 C 87.202 241.270,87.427 240.940,87.630 240.867 C 87.834 240.793,88.000 240.288,88.000 239.743 C 88.000 239.192,88.176 238.861,88.395 238.997 C 88.616 239.134,88.693 238.985,88.568 238.661 C 88.446 238.342,88.538 237.962,88.773 237.817 C 89.313 237.483,89.334 236.400,88.800 236.400 C 88.580 236.400,88.400 236.760,88.400 237.200 M9.094 237.839 C 8.734 238.200,9.230 239.229,9.642 238.974 C 9.839 238.852,10.000 238.493,10.000 238.176 C 10.000 237.587,9.523 237.410,9.094 237.839 M10.000 239.400 C 10.000 239.730,10.180 240.000,10.400 240.000 C 10.620 240.000,10.800 239.730,10.800 239.400 C 10.800 239.070,10.620 238.800,10.400 238.800 C 10.180 238.800,10.000 239.070,10.000 239.400 M10.721 240.212 C 10.357 240.577,12.124 244.000,12.677 244.000 C 12.964 244.000,13.171 244.135,13.136 244.300 C 13.029 244.807,13.700 246.100,14.469 246.869 C 14.871 247.271,15.200 247.900,15.200 248.267 C 15.200 248.633,15.312 248.821,15.450 248.684 C 15.828 248.305,17.137 250.099,16.911 250.687 C 16.803 250.969,16.992 251.200,17.330 251.200 C 17.669 251.200,18.068 251.584,18.217 252.053 C 18.429 252.723,18.563 252.787,18.838 252.353 C 19.111 251.920,19.189 251.961,19.194 252.537 C 19.202 253.535,20.486 255.105,21.122 254.893 C 21.650 254.717,20.236 252.513,18.721 251.153 C 18.324 250.797,18.000 250.302,18.000 250.053 C 18.000 249.804,17.865 249.599,17.700 249.598 C 17.535 249.597,16.770 248.608,16.000 247.400 C 15.230 246.192,14.465 245.203,14.300 245.202 C 14.135 245.201,14.000 244.964,14.000 244.675 C 14.000 244.387,13.640 243.764,13.200 243.292 C 12.760 242.820,12.400 242.156,12.400 241.817 C 12.400 241.478,12.220 241.200,12.000 241.200 C 11.780 241.200,11.600 240.930,11.600 240.600 C 11.600 240.007,11.133 239.801,10.721 240.212 M84.074 248.906 C 83.372 249.759,83.592 252.507,84.326 252.049 C 84.665 251.838,84.807 251.106,84.726 249.994 C 84.617 248.502,84.528 248.354,84.074 248.906 M21.394 255.610 C 21.255 255.835,21.289 255.970,21.470 255.910 C 21.652 255.849,21.800 255.919,21.800 256.064 C 21.800 256.209,22.340 256.746,23.000 257.256 C 23.660 257.767,24.260 258.324,24.333 258.493 C 24.407 258.662,24.633 258.800,24.837 258.800 C 25.040 258.800,24.989 258.452,24.723 258.026 C 24.457 257.600,24.096 257.341,23.920 257.449 C 23.744 257.558,23.600 257.356,23.600 257.000 C 23.600 256.644,23.440 256.451,23.245 256.572 C 23.050 256.692,22.797 256.433,22.683 255.996 C 22.459 255.140,21.805 254.944,21.394 255.610 M83.017 256.500 C 82.897 257.215,82.873 258.430,82.965 259.200 C 83.056 259.970,83.146 260.735,83.165 260.900 C 83.335 262.370,83.845 260.583,83.935 258.200 C 84.051 255.132,83.439 253.997,83.017 256.500 M25.600 258.885 C 25.600 259.466,26.709 261.157,26.939 260.927 C 27.083 260.784,27.200 260.977,27.200 261.357 C 27.200 261.737,27.366 261.945,27.568 261.820 C 27.770 261.695,28.291 262.044,28.726 262.596 C 29.160 263.148,29.708 263.600,29.943 263.600 C 30.179 263.600,30.567 263.965,30.806 264.411 C 31.045 264.857,31.392 265.128,31.578 265.014 C 31.764 264.899,32.019 265.074,32.146 265.402 C 32.272 265.731,32.629 266.000,32.939 266.000 C 33.249 266.000,33.762 266.391,34.079 266.868 C 34.445 267.420,34.842 267.621,35.168 267.420 C 35.858 266.993,32.854 264.330,31.930 264.550 C 31.534 264.644,31.334 264.516,31.442 264.236 C 31.541 263.975,30.956 263.231,30.141 262.581 C 29.326 261.932,28.457 261.220,28.211 261.000 C 27.965 260.780,27.277 260.164,26.682 259.630 C 26.087 259.097,25.600 258.761,25.600 258.885 M83.943 262.720 C 84.322 262.985,84.352 263.182,84.043 263.374 C 83.491 263.715,83.455 267.063,84.000 267.400 C 84.220 267.536,84.400 268.267,84.400 269.024 C 84.400 269.904,84.592 270.400,84.933 270.400 C 85.577 270.400,85.657 269.121,85.039 268.700 C 84.737 268.494,84.787 268.277,85.200 268.006 C 85.733 267.656,85.733 267.612,85.200 267.606 C 84.732 267.601,84.600 267.056,84.600 265.133 C 84.600 263.280,84.451 262.626,84.000 262.503 C 83.514 262.370,83.504 262.412,83.943 262.720 M35.413 267.579 C 35.155 267.997,35.215 268.054,36.015 268.150 C 36.243 268.178,36.600 268.470,36.808 268.800 C 37.017 269.130,37.191 269.252,37.194 269.071 C 37.197 268.890,37.674 269.115,38.254 269.571 C 38.834 270.027,39.555 270.400,39.858 270.400 C 40.160 270.400,40.716 270.760,41.093 271.200 C 41.470 271.640,41.993 272.000,42.256 272.000 C 42.518 272.000,42.804 272.211,42.890 272.469 C 42.975 272.726,43.446 272.967,43.934 273.003 C 45.071 273.086,44.825 272.242,43.663 272.071 C 43.182 272.001,42.873 271.806,42.976 271.639 C 43.079 271.472,42.542 271.091,41.782 270.793 C 41.022 270.495,40.400 270.104,40.400 269.925 C 40.400 269.746,40.130 269.600,39.800 269.600 C 39.470 269.600,39.200 269.420,39.200 269.200 C 39.200 268.980,38.930 268.800,38.600 268.800 C 38.270 268.800,38.000 268.641,38.000 268.447 C 38.000 268.252,37.685 267.982,37.300 267.846 C 36.915 267.711,36.391 267.500,36.137 267.379 C 35.882 267.257,35.556 267.347,35.413 267.579 M85.200 271.800 C 85.200 272.350,85.380 272.800,85.600 272.800 C 85.820 272.800,86.000 273.340,86.000 274.000 C 86.000 274.660,86.180 275.200,86.400 275.200 C 86.620 275.200,86.800 275.549,86.800 275.976 C 86.800 276.403,86.980 276.864,87.200 277.000 C 87.420 277.136,87.600 277.597,87.600 278.024 C 87.600 278.451,87.780 278.800,88.000 278.800 C 88.220 278.800,88.400 279.160,88.400 279.600 C 88.400 280.040,88.541 280.400,88.712 280.400 C 88.884 280.400,89.228 280.940,89.478 281.600 L 89.931 282.800 84.978 282.800 C 80.481 282.800,80.049 282.863,80.286 283.480 C 80.449 283.905,80.607 283.980,80.707 283.680 C 80.917 283.049,81.887 283.063,82.102 283.700 C 82.230 284.081,82.446 284.058,83.012 283.600 C 83.420 283.270,83.626 283.213,83.470 283.472 C 83.260 283.823,84.254 283.943,87.343 283.939 C 91.773 283.932,92.425 283.548,90.707 281.959 C 90.326 281.607,90.131 281.202,90.274 281.059 C 90.417 280.917,90.313 280.800,90.043 280.800 C 89.773 280.800,89.651 280.641,89.771 280.447 C 89.891 280.253,89.630 279.637,89.191 279.079 C 88.752 278.521,88.281 277.507,88.145 276.824 C 88.008 276.142,87.740 275.486,87.548 275.368 C 87.357 275.250,87.200 274.818,87.200 274.410 C 87.200 274.001,87.001 273.600,86.757 273.519 C 86.513 273.438,86.290 272.793,86.261 272.086 C 86.199 270.574,85.200 270.305,85.200 271.800 M45.063 273.380 C 44.924 273.743,45.033 273.885,45.356 273.761 C 45.640 273.653,46.101 273.840,46.381 274.177 C 46.661 274.515,47.038 274.700,47.218 274.589 C 47.398 274.478,47.658 274.570,47.796 274.793 C 48.134 275.340,49.200 275.313,49.200 274.757 C 49.200 274.514,48.939 274.414,48.620 274.537 C 48.273 274.670,47.945 274.455,47.800 274.000 C 47.665 273.575,47.322 273.332,47.020 273.448 C 46.723 273.561,46.362 273.462,46.217 273.227 C 45.846 272.627,45.326 272.696,45.063 273.380 M50.001 275.306 C 50.001 275.578,50.915 276.205,52.032 276.700 C 54.232 277.675,55.200 277.828,55.200 277.200 C 55.200 276.816,54.603 276.629,53.837 276.774 C 53.637 276.811,53.367 276.698,53.237 276.521 C 52.723 275.824,50.000 274.802,50.001 275.306 M55.600 277.800 C 55.600 278.181,55.983 278.400,56.649 278.400 C 57.536 278.400,57.621 278.307,57.200 277.800 C 56.926 277.470,56.454 277.200,56.151 277.200 C 55.848 277.200,55.600 277.470,55.600 277.800 M58.133 278.584 C 58.133 278.924,58.476 279.200,58.900 279.200 C 59.335 279.200,59.595 278.984,59.500 278.700 C 59.254 277.962,58.133 277.866,58.133 278.584 M60.100 279.287 C 60.205 279.799,63.152 280.752,64.724 280.782 C 65.232 280.792,65.559 280.943,65.451 281.118 C 65.343 281.292,65.961 281.427,66.825 281.418 C 67.689 281.408,68.393 281.220,68.389 281.000 C 68.386 280.780,67.785 280.600,67.053 280.600 C 66.322 280.600,65.427 280.354,65.064 280.053 C 64.701 279.752,64.020 279.606,63.550 279.729 C 63.065 279.856,62.446 279.703,62.119 279.376 C 61.418 278.676,59.961 278.611,60.100 279.287 M70.174 281.557 C 70.301 281.763,70.181 282.006,69.908 282.097 C 69.634 282.189,70.287 282.296,71.359 282.337 C 72.914 282.396,73.220 282.306,72.876 281.892 C 72.386 281.301,69.819 280.983,70.174 281.557 M74.000 282.392 C 74.000 282.642,74.180 282.736,74.400 282.600 C 74.620 282.464,74.800 282.543,74.800 282.776 C 74.800 283.019,75.669 283.200,76.833 283.200 C 78.282 283.200,78.819 283.056,78.700 282.700 C 78.481 282.042,74.000 281.748,74.000 282.392 " stroke="none" fill="#1c89dd" fill-rule="evenodd"></path><path id="path4" d="M200.197 113.000 C 200.197 165.580,200.243 187.031,200.300 160.668 C 200.357 134.305,200.357 91.285,200.300 65.068 C 200.243 38.851,200.197 60.420,200.197 113.000 M173.516 18.861 C 173.157 19.088,173.267 19.190,173.876 19.194 C 174.358 19.197,174.845 19.050,174.959 18.867 C 175.224 18.438,174.189 18.433,173.516 18.861 M148.976 26.587 C 148.549 26.910,148.380 27.175,148.600 27.175 C 148.820 27.175,149.349 26.910,149.776 26.587 C 150.204 26.264,150.373 26.000,150.153 26.000 C 149.933 26.000,149.404 26.264,148.976 26.587 M116.043 47.223 C 115.517 47.661,115.171 48.105,115.275 48.208 C 115.379 48.312,115.886 47.948,116.401 47.398 C 117.524 46.204,117.362 46.125,116.043 47.223 M40.392 125.410 C 39.644 126.311,40.078 126.415,40.970 125.548 C 41.393 125.137,41.551 124.800,41.319 124.800 C 41.087 124.800,40.670 125.074,40.392 125.410 M151.813 184.379 C 151.683 184.589,151.964 184.684,152.443 184.592 C 153.638 184.362,153.911 184.000,152.890 184.000 C 152.427 184.000,151.942 184.171,151.813 184.379 M196.409 205.337 C 196.404 205.522,196.760 206.131,197.200 206.691 C 197.640 207.250,197.996 207.549,197.991 207.354 C 197.979 206.887,196.420 204.900,196.409 205.337 M92.100 232.223 C 91.511 232.863,91.462 233.200,91.957 233.200 C 92.298 233.200,92.937 231.996,92.709 231.783 C 92.649 231.727,92.375 231.925,92.100 232.223 M21.293 255.600 C 21.568 256.040,21.931 256.400,22.100 256.400 C 22.269 256.400,22.182 256.040,21.907 255.600 C 21.632 255.160,21.269 254.800,21.100 254.800 C 20.931 254.800,21.018 255.160,21.293 255.600 " stroke="none" fill="#248ce4" fill-rule="evenodd"></path></g></svg>