<svg id="svg" version="1.1" xmlns="http://www.w3.org/2000/svg" xmlns:xlink="http://www.w3.org/1999/xlink" width="400" height="400" viewBox="0, 0, 400,400"><g id="svgg"><path id="path0" d="M188.445 124.029 C 180.030 126.460,176.702 132.615,177.538 144.200 C 177.792 147.720,178.183 155.730,178.407 162.000 C 178.631 168.270,178.985 174.774,179.192 176.453 C 179.400 178.133,179.762 183.623,179.996 188.653 C 180.766 205.213,181.222 213.350,181.583 217.000 C 181.780 218.980,182.138 226.090,182.380 232.800 C 182.622 239.510,182.994 246.440,183.205 248.200 C 183.417 249.960,183.771 254.550,183.993 258.400 C 184.433 266.039,184.513 266.460,186.076 269.400 C 188.934 274.774,193.504 277.400,200.000 277.400 C 205.369 277.400,207.907 276.353,211.642 272.600 C 215.787 268.435,216.040 266.527,217.994 224.800 C 218.215 220.070,218.569 214.760,218.780 213.000 C 218.991 211.240,219.365 204.310,219.611 197.600 C 219.857 190.890,220.220 183.780,220.416 181.800 C 220.764 178.294,221.103 172.269,222.013 153.400 C 222.257 148.340,222.590 142.968,222.753 141.461 C 223.411 135.379,220.876 129.734,215.696 125.747 C 212.371 123.188,195.120 122.100,188.445 124.029 M197.200 290.808 C 192.611 291.628,187.991 294.180,185.386 297.334 C 183.228 299.948,182.400 301.121,182.400 301.568 C 182.400 301.810,181.995 302.862,181.500 303.904 C 179.456 308.209,180.616 317.175,183.753 321.320 C 188.305 327.335,192.749 329.600,199.995 329.600 C 204.639 329.600,205.069 329.531,207.462 328.400 C 208.859 327.740,210.122 327.200,210.268 327.200 C 210.413 327.200,210.818 326.938,211.166 326.618 C 215.481 322.654,216.938 320.842,217.821 318.341 C 218.145 317.421,218.633 316.401,218.905 316.073 C 219.863 314.920,219.560 305.702,218.499 303.716 C 218.005 302.790,217.600 301.837,217.600 301.599 C 217.600 299.768,209.954 292.419,208.021 292.391 C 207.680 292.386,206.671 292.051,205.779 291.646 C 203.843 290.767,199.697 290.362,197.200 290.808 " stroke="none" fill="#fbf3f3" fill-rule="evenodd"></path><path id="path1" d="M191.670 31.690 C 191.411 31.949,191.200 32.394,191.200 32.680 C 191.200 33.060,190.395 33.200,188.200 33.200 C 185.267 33.200,185.200 33.222,185.200 34.200 C 185.200 35.104,185.036 35.204,183.500 35.239 C 180.081 35.319,179.804 35.390,179.405 36.300 C 179.163 36.852,178.660 37.200,178.105 37.200 C 177.412 37.200,177.200 37.429,177.200 38.178 C 177.200 39.061,177.015 39.168,175.300 39.278 C 173.679 39.382,173.381 39.532,173.272 40.300 C 173.180 40.951,172.876 41.200,172.172 41.200 C 171.402 41.200,171.200 41.408,171.200 42.200 C 171.200 43.000,171.000 43.200,170.200 43.200 C 169.400 43.200,169.200 43.400,169.200 44.200 C 169.200 45.000,169.000 45.200,168.200 45.200 C 167.400 45.200,167.200 45.400,167.200 46.200 C 167.200 47.000,167.000 47.200,166.200 47.200 C 165.267 47.200,165.200 47.333,165.200 49.200 C 165.200 51.067,165.133 51.200,164.200 51.200 C 163.408 51.200,163.200 51.402,163.200 52.172 C 163.200 52.876,162.951 53.180,162.300 53.272 C 161.532 53.381,161.382 53.679,161.278 55.300 C 161.168 57.015,161.061 57.200,160.178 57.200 C 159.271 57.200,159.200 57.345,159.200 59.200 C 159.200 61.067,159.133 61.200,158.200 61.200 C 157.428 61.200,157.200 61.406,157.200 62.105 C 157.200 62.660,156.852 63.163,156.300 63.405 C 155.605 63.710,155.372 64.187,155.277 65.500 C 155.168 67.002,155.040 67.200,154.177 67.200 C 153.271 67.200,153.200 67.346,153.200 69.200 C 153.200 71.067,153.133 71.200,152.200 71.200 C 151.267 71.200,151.200 71.333,151.200 73.200 C 151.200 75.067,151.133 75.200,150.200 75.200 C 149.408 75.200,149.200 75.402,149.200 76.172 C 149.200 76.876,148.951 77.180,148.300 77.272 C 147.532 77.381,147.382 77.679,147.278 79.300 C 147.168 81.015,147.061 81.200,146.178 81.200 C 145.271 81.200,145.200 81.345,145.200 83.200 C 145.200 85.067,145.133 85.200,144.200 85.200 C 143.267 85.200,143.200 85.333,143.200 87.200 C 143.200 89.067,143.133 89.200,142.200 89.200 C 141.408 89.200,141.200 89.402,141.200 90.172 C 141.200 90.876,140.951 91.180,140.300 91.272 C 139.532 91.381,139.382 91.679,139.278 93.300 C 139.168 95.015,139.061 95.200,138.178 95.200 C 137.271 95.200,137.200 95.345,137.200 97.200 C 137.200 99.067,137.133 99.200,136.200 99.200 C 135.267 99.200,135.200 99.333,135.200 101.200 C 135.200 103.067,135.133 103.200,134.200 103.200 C 133.408 103.200,133.200 103.402,133.200 104.172 C 133.200 104.876,132.951 105.180,132.300 105.272 C 131.532 105.381,131.382 105.679,131.278 107.300 C 131.168 109.015,131.061 109.200,130.178 109.200 C 129.271 109.200,129.200 109.345,129.200 111.200 C 129.200 113.067,129.133 113.200,128.200 113.200 C 127.428 113.200,127.200 113.406,127.200 114.105 C 127.200 114.660,126.852 115.163,126.300 115.405 C 125.605 115.710,125.372 116.187,125.277 117.500 C 125.168 119.002,125.040 119.200,124.177 119.200 C 123.271 119.200,123.200 119.346,123.200 121.200 C 123.200 123.067,123.133 123.200,122.200 123.200 C 121.267 123.200,121.200 123.333,121.200 125.200 C 121.200 127.067,121.133 127.200,120.200 127.200 C 119.408 127.200,119.200 127.402,119.200 128.172 C 119.200 128.876,118.951 129.180,118.300 129.272 C 117.532 129.381,117.382 129.679,117.278 131.300 C 117.168 133.015,117.061 133.200,116.178 133.200 C 115.271 133.200,115.200 133.345,115.200 135.200 C 115.200 137.067,115.133 137.200,114.200 137.200 C 113.267 137.200,113.200 137.333,113.200 139.200 C 113.200 141.067,113.133 141.200,112.200 141.200 C 111.408 141.200,111.200 141.402,111.200 142.172 C 111.200 142.876,110.951 143.180,110.300 143.272 C 109.532 143.381,109.382 143.679,109.278 145.300 C 109.168 147.015,109.061 147.200,108.178 147.200 C 107.271 147.200,107.200 147.345,107.200 149.200 C 107.200 151.067,107.133 151.200,106.200 151.200 C 105.428 151.200,105.200 151.406,105.200 152.105 C 105.200 152.660,104.852 153.163,104.300 153.405 C 103.605 153.710,103.372 154.187,103.277 155.500 C 103.168 157.002,103.040 157.200,102.177 157.200 C 101.271 157.200,101.200 157.346,101.200 159.200 C 101.200 161.067,101.133 161.200,100.200 161.200 C 99.267 161.200,99.200 161.333,99.200 163.200 C 99.200 165.067,99.133 165.200,98.200 165.200 C 97.428 165.200,97.200 165.406,97.200 166.105 C 97.200 166.660,96.852 167.163,96.300 167.405 C 95.605 167.710,95.372 168.187,95.277 169.500 C 95.168 171.002,95.040 171.200,94.177 171.200 C 93.271 171.200,93.200 171.346,93.200 173.200 C 93.200 175.067,93.133 175.200,92.200 175.200 C 91.267 175.200,91.200 175.333,91.200 177.200 C 91.200 179.067,91.133 179.200,90.200 179.200 C 89.408 179.200,89.200 179.402,89.200 180.172 C 89.200 180.876,88.951 181.180,88.300 181.272 C 87.532 181.381,87.382 181.679,87.278 183.300 C 87.168 185.015,87.061 185.200,86.178 185.200 C 85.271 185.200,85.200 185.345,85.200 187.200 C 85.200 189.067,85.133 189.200,84.200 189.200 C 83.267 189.200,83.200 189.333,83.200 191.200 C 83.200 193.067,83.133 193.200,82.200 193.200 C 81.408 193.200,81.200 193.402,81.200 194.172 C 81.200 194.876,80.951 195.180,80.300 195.272 C 79.532 195.381,79.382 195.679,79.278 197.300 C 79.168 199.015,79.061 199.200,78.178 199.200 C 77.271 199.200,77.200 199.345,77.200 201.200 C 77.200 203.067,77.133 203.200,76.200 203.200 C 75.428 203.200,75.200 203.406,75.200 204.105 C 75.200 204.660,74.852 205.163,74.300 205.405 C 73.605 205.710,73.372 206.187,73.277 207.500 C 73.168 209.002,73.040 209.200,72.177 209.200 C 71.271 209.200,71.200 209.346,71.200 211.200 C 71.200 213.067,71.133 213.200,70.200 213.200 C 69.267 213.200,69.200 213.333,69.200 215.200 C 69.200 217.067,69.133 217.200,68.200 217.200 C 67.408 217.200,67.200 217.402,67.200 218.172 C 67.200 218.876,66.951 219.180,66.300 219.272 C 65.532 219.381,65.382 219.679,65.278 221.300 C 65.168 223.015,65.061 223.200,64.178 223.200 C 63.271 223.200,63.200 223.345,63.200 225.200 C 63.200 227.067,63.133 227.200,62.200 227.200 C 61.267 227.200,61.200 227.333,61.200 229.200 C 61.200 231.067,61.133 231.200,60.200 231.200 C 59.408 231.200,59.200 231.402,59.200 232.172 C 59.200 232.876,58.951 233.180,58.300 233.272 C 57.532 233.381,57.382 233.679,57.278 235.300 C 57.168 237.015,57.061 237.200,56.178 237.200 C 55.271 237.200,55.200 237.345,55.200 239.200 C 55.200 241.067,55.133 241.200,54.200 241.200 C 53.267 241.200,53.200 241.333,53.200 243.200 C 53.200 245.067,53.133 245.200,52.200 245.200 C 51.408 245.200,51.200 245.402,51.200 246.172 C 51.200 246.876,50.951 247.180,50.300 247.272 C 49.532 247.381,49.382 247.679,49.278 249.300 C 49.168 251.015,49.061 251.200,48.178 251.200 C 47.271 251.200,47.200 251.345,47.200 253.200 C 47.200 255.067,47.133 255.200,46.200 255.200 C 45.428 255.200,45.200 255.406,45.200 256.105 C 45.200 256.660,44.852 257.163,44.300 257.405 C 43.605 257.710,43.372 258.187,43.277 259.500 C 43.168 261.002,43.040 261.200,42.177 261.200 C 41.271 261.200,41.200 261.346,41.200 263.200 C 41.200 265.067,41.133 265.200,40.200 265.200 C 39.267 265.200,39.200 265.333,39.200 267.200 C 39.200 269.067,39.133 269.200,38.200 269.200 C 37.408 269.200,37.200 269.402,37.200 270.172 C 37.200 270.876,36.951 271.180,36.300 271.272 C 35.532 271.381,35.382 271.679,35.278 273.300 C 35.168 275.015,35.061 275.200,34.178 275.200 C 33.271 275.200,33.200 275.345,33.200 277.200 C 33.200 279.067,33.133 279.200,32.200 279.200 C 31.267 279.200,31.200 279.333,31.200 281.200 C 31.200 283.067,31.133 283.200,30.200 283.200 C 29.408 283.200,29.200 283.402,29.200 284.172 C 29.200 284.876,28.951 285.180,28.300 285.272 C 27.532 285.381,27.382 285.679,27.278 287.300 C 27.168 289.015,27.061 289.200,26.178 289.200 C 25.271 289.200,25.200 289.345,25.200 291.200 C 25.200 293.067,25.133 293.200,24.200 293.200 C 23.267 293.200,23.200 293.333,23.200 295.200 C 23.200 297.067,23.133 297.200,22.200 297.200 C 21.408 297.200,21.200 297.402,21.200 298.172 C 21.200 298.876,20.951 299.180,20.300 299.272 C 19.532 299.381,19.382 299.679,19.278 301.300 C 19.168 303.015,19.061 303.200,18.178 303.200 C 17.271 303.200,17.200 303.345,17.200 305.200 C 17.200 307.067,17.133 307.200,16.200 307.200 C 15.273 307.200,15.200 307.340,15.200 309.105 C 15.200 310.697,15.052 311.075,14.300 311.405 C 13.436 311.784,13.396 312.027,13.290 317.410 C 13.184 322.772,13.140 323.036,12.290 323.410 C 10.957 323.994,10.965 328.009,12.300 328.595 C 13.185 328.983,13.548 332.606,13.212 337.700 C 13.151 338.629,13.297 338.800,14.152 338.800 C 15.132 338.800,15.169 338.895,15.282 341.700 C 15.389 344.339,15.479 344.611,16.278 344.725 C 16.999 344.827,17.178 345.151,17.278 346.525 C 17.372 347.812,17.608 348.291,18.300 348.595 C 18.852 348.837,19.200 349.340,19.200 349.895 C 19.200 350.594,19.428 350.800,20.200 350.800 C 21.000 350.800,21.200 351.000,21.200 351.800 C 21.200 352.600,21.400 352.800,22.200 352.800 C 23.000 352.800,23.200 353.000,23.200 353.800 C 23.200 354.600,23.400 354.800,24.200 354.800 C 25.000 354.800,25.200 355.000,25.200 355.800 C 25.200 356.600,25.400 356.800,26.200 356.800 C 27.000 356.800,27.200 357.000,27.200 357.800 C 27.200 358.600,27.400 358.800,28.200 358.800 C 29.000 358.800,29.200 359.000,29.200 359.800 C 29.200 360.592,29.402 360.800,30.172 360.800 C 30.876 360.800,31.180 361.049,31.272 361.700 C 31.381 362.468,31.679 362.618,33.300 362.722 C 35.015 362.832,35.200 362.939,35.200 363.822 C 35.200 364.727,35.347 364.800,37.172 364.800 C 38.913 364.800,39.159 364.906,39.272 365.700 C 39.393 366.553,39.601 366.606,43.274 366.714 C 46.928 366.822,47.155 366.879,47.274 367.714 L 47.400 368.600 200.000 368.600 L 352.600 368.600 352.726 367.714 C 352.845 366.879,353.072 366.822,356.726 366.714 C 360.399 366.606,360.607 366.553,360.728 365.700 C 360.841 364.906,361.087 364.800,362.828 364.800 C 364.653 364.800,364.800 364.727,364.800 363.822 C 364.800 362.939,364.985 362.832,366.700 362.722 C 368.321 362.618,368.619 362.468,368.728 361.700 C 368.820 361.049,369.124 360.800,369.828 360.800 C 370.598 360.800,370.800 360.592,370.800 359.800 C 370.800 359.000,371.000 358.800,371.800 358.800 C 372.600 358.800,372.800 358.600,372.800 357.800 C 372.800 357.000,373.000 356.800,373.800 356.800 C 374.600 356.800,374.800 356.600,374.800 355.800 C 374.800 355.000,375.000 354.800,375.800 354.800 C 376.600 354.800,376.800 354.600,376.800 353.800 C 376.800 353.000,377.000 352.800,377.800 352.800 C 378.600 352.800,378.800 352.600,378.800 351.800 C 378.800 351.000,379.000 350.800,379.800 350.800 C 380.572 350.800,380.800 350.594,380.800 349.895 C 380.800 349.340,381.148 348.837,381.700 348.595 C 382.392 348.291,382.628 347.812,382.722 346.525 C 382.822 345.151,383.001 344.827,383.722 344.725 C 384.521 344.611,384.611 344.339,384.718 341.700 C 384.831 338.895,384.868 338.800,385.848 338.800 C 386.703 338.800,386.849 338.629,386.788 337.700 C 386.452 332.606,386.815 328.983,387.700 328.595 C 389.035 328.009,389.043 323.994,387.710 323.410 C 386.857 323.035,386.816 322.780,386.710 317.210 C 386.602 311.528,386.580 311.397,385.700 311.272 C 384.906 311.159,384.800 310.913,384.800 309.172 C 384.800 307.335,384.731 307.200,383.800 307.200 C 382.867 307.200,382.800 307.067,382.800 305.200 C 382.800 303.333,382.733 303.200,381.800 303.200 C 380.867 303.200,380.800 303.067,380.800 301.200 C 380.800 299.333,380.733 299.200,379.800 299.200 C 379.000 299.200,378.800 299.000,378.800 298.200 C 378.800 297.400,378.600 297.200,377.800 297.200 C 376.867 297.200,376.800 297.067,376.800 295.200 C 376.800 293.333,376.733 293.200,375.800 293.200 C 374.867 293.200,374.800 293.067,374.800 291.200 C 374.800 289.345,374.729 289.200,373.822 289.200 C 372.939 289.200,372.832 289.015,372.722 287.300 C 372.618 285.679,372.468 285.381,371.700 285.272 C 371.049 285.180,370.800 284.876,370.800 284.172 C 370.800 283.402,370.592 283.200,369.800 283.200 C 368.867 283.200,368.800 283.067,368.800 281.200 C 368.800 279.333,368.733 279.200,367.800 279.200 C 366.867 279.200,366.800 279.067,366.800 277.200 C 366.800 275.345,366.729 275.200,365.822 275.200 C 364.939 275.200,364.832 275.015,364.722 273.300 C 364.618 271.679,364.468 271.381,363.700 271.272 C 363.049 271.180,362.800 270.876,362.800 270.172 C 362.800 269.402,362.592 269.200,361.800 269.200 C 360.867 269.200,360.800 269.067,360.800 267.200 C 360.800 265.333,360.733 265.200,359.800 265.200 C 358.867 265.200,358.800 265.067,358.800 263.200 C 358.800 261.346,358.729 261.200,357.823 261.200 C 356.960 261.200,356.832 261.002,356.723 259.500 C 356.628 258.187,356.395 257.710,355.700 257.405 C 355.148 257.163,354.800 256.660,354.800 256.105 C 354.800 255.406,354.572 255.200,353.800 255.200 C 352.867 255.200,352.800 255.067,352.800 253.200 C 352.800 251.345,352.729 251.200,351.822 251.200 C 350.939 251.200,350.832 251.015,350.722 249.300 C 350.618 247.679,350.468 247.381,349.700 247.272 C 349.049 247.180,348.800 246.876,348.800 246.172 C 348.800 245.402,348.592 245.200,347.800 245.200 C 346.867 245.200,346.800 245.067,346.800 243.200 C 346.800 241.333,346.733 241.200,345.800 241.200 C 344.867 241.200,344.800 241.067,344.800 239.200 C 344.800 237.345,344.729 237.200,343.822 237.200 C 342.939 237.200,342.832 237.015,342.722 235.300 C 342.618 233.679,342.468 233.381,341.700 233.272 C 341.049 233.180,340.800 232.876,340.800 232.172 C 340.800 231.402,340.592 231.200,339.800 231.200 C 338.867 231.200,338.800 231.067,338.800 229.200 C 338.800 227.333,338.733 227.200,337.800 227.200 C 336.867 227.200,336.800 227.067,336.800 225.200 C 336.800 223.345,336.729 223.200,335.822 223.200 C 334.939 223.200,334.832 223.015,334.722 221.300 C 334.618 219.679,334.468 219.381,333.700 219.272 C 333.049 219.180,332.800 218.876,332.800 218.172 C 332.800 217.402,332.592 217.200,331.800 217.200 C 330.867 217.200,330.800 217.067,330.800 215.200 C 330.800 213.333,330.733 213.200,329.800 213.200 C 328.867 213.200,328.800 213.067,328.800 211.200 C 328.800 209.346,328.729 209.200,327.823 209.200 C 326.960 209.200,326.832 209.002,326.723 207.500 C 326.628 206.187,326.395 205.710,325.700 205.405 C 325.148 205.163,324.800 204.660,324.800 204.105 C 324.800 203.406,324.572 203.200,323.800 203.200 C 322.867 203.200,322.800 203.067,322.800 201.200 C 322.800 199.345,322.729 199.200,321.822 199.200 C 320.939 199.200,320.832 199.015,320.722 197.300 C 320.618 195.679,320.468 195.381,319.700 195.272 C 319.049 195.180,318.800 194.876,318.800 194.172 C 318.800 193.402,318.592 193.200,317.800 193.200 C 316.867 193.200,316.800 193.067,316.800 191.200 C 316.800 189.333,316.733 189.200,315.800 189.200 C 314.867 189.200,314.800 189.067,314.800 187.200 C 314.800 185.345,314.729 185.200,313.822 185.200 C 312.939 185.200,312.832 185.015,312.722 183.300 C 312.618 181.679,312.468 181.381,311.700 181.272 C 311.049 181.180,310.800 180.876,310.800 180.172 C 310.800 179.402,310.592 179.200,309.800 179.200 C 308.867 179.200,308.800 179.067,308.800 177.200 C 308.800 175.333,308.733 175.200,307.800 175.200 C 306.867 175.200,306.800 175.067,306.800 173.200 C 306.800 171.346,306.729 171.200,305.823 171.200 C 304.960 171.200,304.832 171.002,304.723 169.500 C 304.628 168.187,304.395 167.710,303.700 167.405 C 303.148 167.163,302.800 166.660,302.800 166.105 C 302.800 165.406,302.572 165.200,301.800 165.200 C 300.867 165.200,300.800 165.067,300.800 163.200 C 300.800 161.333,300.733 161.200,299.800 161.200 C 298.867 161.200,298.800 161.067,298.800 159.200 C 298.800 157.346,298.729 157.200,297.823 157.200 C 296.960 157.200,296.832 157.002,296.723 155.500 C 296.628 154.187,296.395 153.710,295.700 153.405 C 295.148 153.163,294.800 152.660,294.800 152.105 C 294.800 151.406,294.572 151.200,293.800 151.200 C 292.867 151.200,292.800 151.067,292.800 149.200 C 292.800 147.345,292.729 147.200,291.822 147.200 C 290.939 147.200,290.832 147.015,290.722 145.300 C 290.618 143.679,290.468 143.381,289.700 143.272 C 289.049 143.180,288.800 142.876,288.800 142.172 C 288.800 141.402,288.592 141.200,287.800 141.200 C 286.867 141.200,286.800 141.067,286.800 139.200 C 286.800 137.333,286.733 137.200,285.800 137.200 C 284.867 137.200,284.800 137.067,284.800 135.200 C 284.800 133.345,284.729 133.200,283.822 133.200 C 282.939 133.200,282.832 133.015,282.722 131.300 C 282.618 129.679,282.468 129.381,281.700 129.272 C 281.049 129.180,280.800 128.876,280.800 128.172 C 280.800 127.402,280.592 127.200,279.800 127.200 C 278.867 127.200,278.800 127.067,278.800 125.200 C 278.800 123.333,278.733 123.200,277.800 123.200 C 276.867 123.200,276.800 123.067,276.800 121.200 C 276.800 119.346,276.729 119.200,275.823 119.200 C 274.960 119.200,274.832 119.002,274.723 117.500 C 274.628 116.187,274.395 115.710,273.700 115.405 C 273.148 115.163,272.800 114.660,272.800 114.105 C 272.800 113.406,272.572 113.200,271.800 113.200 C 270.867 113.200,270.800 113.067,270.800 111.200 C 270.800 109.345,270.729 109.200,269.822 109.200 C 268.939 109.200,268.832 109.015,268.722 107.300 C 268.618 105.679,268.468 105.381,267.700 105.272 C 267.049 105.180,266.800 104.876,266.800 104.172 C 266.800 103.402,266.592 103.200,265.800 103.200 C 264.867 103.200,264.800 103.067,264.800 101.200 C 264.800 99.333,264.733 99.200,263.800 99.200 C 262.867 99.200,262.800 99.067,262.800 97.200 C 262.800 95.345,262.729 95.200,261.822 95.200 C 260.939 95.200,260.832 95.015,260.722 93.300 C 260.618 91.679,260.468 91.381,259.700 91.272 C 259.049 91.180,258.800 90.876,258.800 90.172 C 258.800 89.402,258.592 89.200,257.800 89.200 C 256.867 89.200,256.800 89.067,256.800 87.200 C 256.800 85.333,256.733 85.200,255.800 85.200 C 254.867 85.200,254.800 85.067,254.800 83.200 C 254.800 81.345,254.729 81.200,253.822 81.200 C 252.939 81.200,252.832 81.015,252.722 79.300 C 252.618 77.679,252.468 77.381,251.700 77.272 C 251.049 77.180,250.800 76.876,250.800 76.172 C 250.800 75.402,250.592 75.200,249.800 75.200 C 248.867 75.200,248.800 75.067,248.800 73.200 C 248.800 71.333,248.733 71.200,247.800 71.200 C 246.867 71.200,246.800 71.067,246.800 69.200 C 246.800 67.346,246.729 67.200,245.823 67.200 C 244.960 67.200,244.832 67.002,244.723 65.500 C 244.628 64.187,244.395 63.710,243.700 63.405 C 243.148 63.163,242.800 62.660,242.800 62.105 C 242.800 61.406,242.572 61.200,241.800 61.200 C 240.867 61.200,240.800 61.067,240.800 59.200 C 240.800 57.345,240.729 57.200,239.822 57.200 C 238.939 57.200,238.832 57.015,238.722 55.300 C 238.618 53.679,238.468 53.381,237.700 53.272 C 237.049 53.180,236.800 52.876,236.800 52.172 C 236.800 51.402,236.592 51.200,235.800 51.200 C 234.867 51.200,234.800 51.067,234.800 49.200 C 234.800 47.333,234.733 47.200,233.800 47.200 C 233.000 47.200,232.800 47.000,232.800 46.200 C 232.800 45.400,232.600 45.200,231.800 45.200 C 231.000 45.200,230.800 45.000,230.800 44.200 C 230.800 43.400,230.600 43.200,229.800 43.200 C 229.000 43.200,228.800 43.000,228.800 42.200 C 228.800 41.408,228.598 41.200,227.828 41.200 C 227.124 41.200,226.820 40.951,226.728 40.300 C 226.619 39.532,226.321 39.382,224.700 39.278 C 222.985 39.168,222.800 39.061,222.800 38.178 C 222.800 37.429,222.588 37.200,221.895 37.200 C 221.340 37.200,220.837 36.852,220.595 36.300 C 220.196 35.390,219.919 35.319,216.500 35.239 C 214.964 35.204,214.800 35.104,214.800 34.200 C 214.800 33.225,214.727 33.200,211.895 33.200 C 209.266 33.200,208.952 33.114,208.595 32.300 C 208.130 31.241,192.675 30.685,191.670 31.690 M193.200 32.600 C 192.926 32.930,192.522 33.200,192.302 33.200 C 192.079 33.200,192.122 32.935,192.400 32.600 C 192.674 32.270,193.078 32.000,193.298 32.000 C 193.521 32.000,193.478 32.265,193.200 32.600 M207.600 32.600 C 207.878 32.935,207.921 33.200,207.698 33.200 C 207.478 33.200,207.074 32.930,206.800 32.600 C 206.522 32.265,206.479 32.000,206.702 32.000 C 206.922 32.000,207.326 32.270,207.600 32.600 M212.530 121.574 C 213.372 121.770,214.272 122.194,214.530 122.517 C 214.789 122.840,215.468 123.212,216.041 123.345 C 217.391 123.657,222.343 128.609,222.655 129.959 C 222.788 130.532,223.160 131.211,223.483 131.470 C 225.213 132.854,225.153 160.577,223.400 170.491 C 223.078 172.311,222.810 176.050,222.805 178.800 C 222.791 186.245,222.034 202.257,221.567 205.000 C 221.343 206.320,220.997 212.530,220.799 218.800 C 220.393 231.663,219.762 241.241,219.187 243.244 C 218.974 243.987,218.789 247.566,218.775 251.197 C 218.739 260.537,218.295 266.204,217.531 267.085 C 217.189 267.478,216.797 268.400,216.658 269.133 C 216.296 271.051,211.562 276.800,210.345 276.800 C 210.074 276.800,209.461 277.167,208.983 277.616 C 208.506 278.065,207.414 278.539,206.557 278.670 C 205.701 278.801,204.666 279.199,204.258 279.554 C 203.696 280.043,202.663 280.200,200.000 280.200 C 197.337 280.200,196.304 280.043,195.742 279.554 C 195.334 279.199,194.299 278.801,193.443 278.670 C 192.586 278.539,191.494 278.065,191.017 277.616 C 190.539 277.167,189.935 276.800,189.675 276.800 C 188.439 276.800,183.200 270.359,183.200 268.840 C 183.200 268.517,182.835 267.498,182.389 266.577 C 181.662 265.075,181.555 263.862,181.361 254.950 C 181.241 249.444,180.889 243.392,180.573 241.400 C 179.957 237.516,179.219 222.742,179.205 214.000 C 179.200 211.030,179.024 207.970,178.815 207.200 C 178.164 204.806,177.641 196.666,177.375 184.800 C 177.226 178.139,176.886 172.001,176.557 170.033 C 175.000 160.708,174.818 133.484,176.302 131.904 C 176.796 131.379,177.202 130.690,177.204 130.374 C 177.214 128.908,182.959 123.214,184.438 123.204 C 184.789 123.202,185.393 122.850,185.780 122.423 C 186.167 121.995,186.959 121.572,187.542 121.482 C 189.689 121.153,211.051 121.231,212.530 121.574 M203.390 288.771 C 203.616 288.946,204.786 289.201,205.991 289.337 C 207.201 289.473,208.660 289.937,209.251 290.374 C 209.839 290.809,210.811 291.288,211.412 291.439 C 212.013 291.590,212.592 292.048,212.699 292.456 C 212.806 292.865,213.124 293.200,213.407 293.200 C 214.099 293.200,216.800 295.938,216.800 296.640 C 216.800 296.948,217.079 297.200,217.420 297.200 C 217.762 297.200,218.317 297.785,218.655 298.500 C 218.993 299.215,219.614 300.430,220.034 301.200 C 220.455 301.970,220.799 303.101,220.799 303.714 C 220.800 304.327,221.109 305.300,221.487 305.876 C 222.402 307.274,222.428 313.485,221.524 314.871 C 221.190 315.382,220.788 316.668,220.630 317.729 C 220.462 318.854,220.021 319.932,219.571 320.317 C 219.147 320.681,218.800 321.178,218.800 321.423 C 218.800 321.895,216.079 325.613,215.400 326.069 C 215.180 326.216,214.383 326.891,213.628 327.569 C 212.873 328.246,211.972 328.800,211.624 328.800 C 211.277 328.800,210.778 329.143,210.517 329.561 C 210.245 329.997,209.358 330.438,208.444 330.593 C 207.566 330.741,206.168 331.208,205.339 331.631 C 204.162 332.231,202.989 332.400,200.000 332.400 C 197.011 332.400,195.838 332.231,194.661 331.631 C 193.832 331.208,192.434 330.741,191.556 330.593 C 190.642 330.438,189.755 329.997,189.483 329.561 C 189.222 329.143,188.723 328.800,188.376 328.800 C 188.028 328.800,187.127 328.246,186.372 327.569 C 185.617 326.891,184.820 326.216,184.600 326.069 C 183.900 325.599,181.200 321.888,181.200 321.396 C 181.200 321.137,180.848 320.605,180.418 320.216 C 179.973 319.814,179.519 318.707,179.366 317.654 C 179.217 316.634,178.817 315.260,178.476 314.600 C 177.584 312.873,177.612 307.252,178.520 305.866 C 178.894 305.295,179.200 304.327,179.201 303.714 C 179.201 303.101,179.545 301.970,179.966 301.200 C 180.386 300.430,181.007 299.215,181.345 298.500 C 181.683 297.785,182.238 297.200,182.580 297.200 C 182.921 297.200,183.200 296.948,183.200 296.640 C 183.200 295.936,185.902 293.200,186.597 293.200 C 186.882 293.200,187.221 292.922,187.351 292.583 C 187.481 292.244,188.085 291.748,188.694 291.482 C 189.302 291.215,190.262 290.684,190.826 290.301 C 191.390 289.918,192.740 289.494,193.826 289.358 C 194.912 289.222,196.520 288.861,197.400 288.555 C 199.009 287.995,202.559 288.123,203.390 288.771 M13.000 325.966 C 13.000 327.493,12.888 327.839,12.500 327.517 C 11.691 326.846,12.079 324.000,12.980 324.000 C 12.991 324.000,13.000 324.885,13.000 325.966 M388.000 326.000 C 388.000 326.606,387.775 327.289,387.500 327.517 C 387.112 327.839,387.000 327.500,387.000 326.000 C 387.000 324.500,387.112 324.161,387.500 324.483 C 387.775 324.711,388.000 325.394,388.000 326.000 " stroke="none" fill="#ec1c24" fill-rule="evenodd"></path><path id="path2" d="M189.000 121.975 C 188.340 122.152,187.260 122.589,186.600 122.946 C 185.940 123.303,185.220 123.599,185.000 123.603 C 183.801 123.626,177.621 129.814,177.605 131.006 C 177.602 131.229,177.195 132.129,176.700 133.006 C 175.682 134.808,175.512 146.374,176.372 155.200 C 176.781 159.391,177.220 167.158,177.990 183.800 C 178.214 188.640,178.567 194.040,178.775 195.800 C 178.984 197.560,179.360 204.490,179.611 211.200 C 179.862 217.910,180.227 225.020,180.421 227.000 C 180.784 230.706,181.300 239.893,181.972 254.615 C 182.520 266.623,183.641 270.170,188.300 274.634 C 194.456 280.532,205.544 280.532,211.700 274.634 C 216.332 270.196,217.428 266.830,217.999 255.300 C 218.981 235.458,219.246 230.778,219.578 227.400 C 219.773 225.420,220.138 218.310,220.389 211.600 C 220.640 204.890,221.016 197.960,221.225 196.200 C 221.433 194.440,221.788 189.040,222.013 184.200 C 222.819 166.922,223.202 160.138,223.619 155.800 C 224.492 146.731,224.325 134.821,223.300 133.006 C 222.805 132.129,222.400 131.199,222.400 130.940 C 222.400 129.756,216.244 123.600,215.060 123.600 C 214.801 123.600,213.871 123.195,212.994 122.700 C 211.301 121.744,192.032 121.162,189.000 121.975 M209.298 122.381 C 221.134 124.320,226.309 136.105,223.005 153.600 C 222.901 154.150,222.542 160.720,222.207 168.200 C 221.871 175.680,221.329 185.490,221.002 190.000 C 220.674 194.510,220.223 202.610,219.998 208.000 C 219.773 213.390,219.326 221.310,219.006 225.600 C 218.686 229.890,218.235 237.990,218.005 243.600 C 217.084 266.047,216.453 269.084,211.721 273.815 C 205.506 280.031,194.494 280.031,188.279 273.815 C 183.579 269.115,182.949 266.047,181.999 243.200 C 181.766 237.590,181.313 229.490,180.993 225.200 C 180.673 220.910,180.227 212.990,180.002 207.600 C 179.777 202.210,179.326 194.110,178.999 189.600 C 178.672 185.090,178.131 175.460,177.796 168.200 C 177.462 160.940,177.005 153.020,176.781 150.600 C 175.219 133.724,177.851 126.843,187.200 123.363 C 190.721 122.052,203.754 121.473,209.298 122.381 M195.355 289.636 C 191.178 290.334,186.611 293.285,183.108 297.548 C 178.712 302.898,177.773 312.673,181.001 319.481 C 184.428 326.706,193.833 332.329,201.073 331.481 C 204.629 331.065,208.419 330.043,209.468 329.218 C 210.040 328.768,210.742 328.400,211.029 328.400 C 212.781 328.400,219.056 320.640,220.087 317.200 C 224.933 301.031,212.183 286.821,195.355 289.636 M203.061 289.996 C 209.639 290.851,215.324 295.105,218.529 301.571 L 220.200 304.941 220.190 310.371 L 220.179 315.800 218.685 318.918 C 212.474 331.883,195.721 334.816,185.525 324.725 C 173.754 313.074,180.555 292.123,196.800 289.993 C 199.913 289.585,199.896 289.585,203.061 289.996 " stroke="none" fill="#f46b70" fill-rule="evenodd"></path><path id="path3" d="M190.600 122.396 C 184.176 123.586,179.524 127.525,177.135 133.800 C 176.107 136.501,175.990 142.050,176.781 150.600 C 177.005 153.020,177.462 160.940,177.796 168.200 C 178.131 175.460,178.672 185.090,178.999 189.600 C 179.326 194.110,179.777 202.210,180.002 207.600 C 180.227 212.990,180.673 220.910,180.993 225.200 C 181.313 229.490,181.766 237.590,181.999 243.200 C 182.949 266.047,183.579 269.115,188.279 273.815 C 194.494 280.031,205.506 280.031,211.721 273.815 C 216.453 269.084,217.084 266.047,218.005 243.600 C 218.235 237.990,218.686 229.890,219.006 225.600 C 219.326 221.310,219.773 213.390,219.998 208.000 C 220.223 202.610,220.674 194.510,221.002 190.000 C 221.329 185.490,221.871 175.680,222.207 168.200 C 222.542 160.720,222.901 154.150,223.005 153.600 C 226.309 136.105,221.134 124.320,209.298 122.381 C 206.643 121.946,192.971 121.957,190.600 122.396 M211.568 124.047 C 218.902 126.105,223.620 133.450,222.753 141.461 C 222.590 142.968,222.257 148.340,222.013 153.400 C 221.103 172.269,220.764 178.294,220.416 181.800 C 220.220 183.780,219.857 190.890,219.611 197.600 C 219.365 204.310,218.991 211.240,218.780 213.000 C 218.569 214.760,218.215 220.070,217.994 224.800 C 216.321 260.537,215.840 265.941,214.047 269.200 C 210.932 274.860,206.582 277.400,200.000 277.400 C 194.633 277.400,192.136 276.371,188.346 272.600 C 187.122 271.382,185.266 268.222,184.704 266.400 C 184.535 265.850,184.215 262.250,183.993 258.400 C 183.771 254.550,183.417 249.960,183.205 248.200 C 182.994 246.440,182.622 239.510,182.380 232.800 C 182.138 226.090,181.780 218.980,181.583 217.000 C 181.222 213.350,180.766 205.213,179.996 188.653 C 179.762 183.623,179.400 178.133,179.192 176.453 C 178.985 174.774,178.631 168.270,178.407 162.000 C 178.183 155.730,177.792 147.720,177.538 144.200 C 176.702 132.615,180.030 126.460,188.445 124.029 C 192.488 122.861,207.382 122.873,211.568 124.047 M196.800 289.993 C 180.555 292.123,173.754 313.074,185.525 324.725 C 195.721 334.816,212.474 331.883,218.685 318.918 L 220.179 315.800 220.190 310.371 L 220.200 304.941 218.529 301.571 C 215.324 295.105,209.639 290.851,203.061 289.996 C 199.896 289.585,199.913 289.585,196.800 289.993 M205.779 291.646 C 206.671 292.051,207.680 292.386,208.021 292.391 C 209.954 292.419,217.600 299.768,217.600 301.599 C 217.600 301.837,218.005 302.790,218.499 303.716 C 219.560 305.702,219.863 314.920,218.905 316.073 C 218.633 316.401,218.145 317.421,217.821 318.341 C 216.938 320.842,215.481 322.654,211.166 326.618 C 210.818 326.938,210.413 327.200,210.268 327.200 C 210.122 327.200,208.859 327.740,207.462 328.400 C 202.287 330.845,192.916 329.805,188.541 326.298 C 185.442 323.815,183.164 320.829,181.753 317.400 C 180.187 313.597,180.062 306.933,181.500 303.904 C 181.995 302.862,182.400 301.810,182.400 301.568 C 182.400 301.121,183.228 299.948,185.386 297.334 C 190.059 291.677,199.840 288.949,205.779 291.646 " stroke="none" fill="#f4969c" fill-rule="evenodd"></path><path id="path4" d="M192.400 32.600 C 192.122 32.935,192.079 33.200,192.302 33.200 C 192.522 33.200,192.926 32.930,193.200 32.600 C 193.478 32.265,193.521 32.000,193.298 32.000 C 193.078 32.000,192.674 32.270,192.400 32.600 M206.800 32.600 C 207.074 32.930,207.478 33.200,207.698 33.200 C 207.921 33.200,207.878 32.935,207.600 32.600 C 207.326 32.270,206.922 32.000,206.702 32.000 C 206.479 32.000,206.522 32.265,206.800 32.600 M187.542 121.482 C 186.959 121.572,186.167 121.995,185.780 122.423 C 185.393 122.850,184.789 123.202,184.438 123.204 C 182.959 123.214,177.214 128.908,177.204 130.374 C 177.202 130.690,176.796 131.379,176.302 131.904 C 174.818 133.484,175.000 160.708,176.557 170.033 C 176.886 172.001,177.226 178.139,177.375 184.800 C 177.641 196.666,178.164 204.806,178.815 207.200 C 179.024 207.970,179.200 211.030,179.205 214.000 C 179.219 222.742,179.957 237.516,180.573 241.400 C 180.889 243.392,181.241 249.444,181.361 254.950 C 181.555 263.862,181.662 265.075,182.389 266.577 C 182.835 267.498,183.200 268.517,183.200 268.840 C 183.200 270.359,188.439 276.800,189.675 276.800 C 189.935 276.800,190.539 277.167,191.017 277.616 C 191.494 278.065,192.586 278.539,193.443 278.670 C 194.299 278.801,195.334 279.199,195.742 279.554 C 196.304 280.043,197.337 280.200,200.000 280.200 C 202.663 280.200,203.696 280.043,204.258 279.554 C 204.666 279.199,205.701 278.801,206.557 278.670 C 207.414 278.539,208.506 278.065,208.983 277.616 C 209.461 277.167,210.074 276.800,210.345 276.800 C 211.562 276.800,216.296 271.051,216.658 269.133 C 216.797 268.400,217.189 267.478,217.531 267.085 C 218.295 266.204,218.739 260.537,218.775 251.197 C 218.789 247.566,218.974 243.987,219.187 243.244 C 219.762 241.241,220.393 231.663,220.799 218.800 C 220.997 212.530,221.343 206.320,221.567 205.000 C 222.034 202.257,222.791 186.245,222.805 178.800 C 222.810 176.050,223.078 172.311,223.400 170.491 C 225.153 160.577,225.213 132.854,223.483 131.470 C 223.160 131.211,222.788 130.532,222.655 129.959 C 222.343 128.609,217.391 123.657,216.041 123.345 C 215.468 123.212,214.789 122.840,214.530 122.517 C 213.619 121.378,193.292 120.599,187.542 121.482 M212.994 122.700 C 213.871 123.195,214.801 123.600,215.060 123.600 C 216.244 123.600,222.400 129.756,222.400 130.940 C 222.400 131.199,222.805 132.129,223.300 133.006 C 224.325 134.821,224.492 146.731,223.619 155.800 C 223.202 160.138,222.819 166.922,222.013 184.200 C 221.788 189.040,221.433 194.440,221.225 196.200 C 221.016 197.960,220.640 204.890,220.389 211.600 C 220.138 218.310,219.773 225.420,219.578 227.400 C 219.246 230.778,218.981 235.458,217.999 255.300 C 217.428 266.830,216.332 270.196,211.700 274.634 C 205.544 280.532,194.456 280.532,188.300 274.634 C 183.641 270.170,182.520 266.623,181.972 254.615 C 181.300 239.893,180.784 230.706,180.421 227.000 C 180.227 225.020,179.862 217.910,179.611 211.200 C 179.360 204.490,178.984 197.560,178.775 195.800 C 178.567 194.040,178.214 188.640,177.990 183.800 C 177.220 167.158,176.781 159.391,176.372 155.200 C 175.512 146.374,175.682 134.808,176.700 133.006 C 177.195 132.129,177.602 131.229,177.605 131.006 C 177.621 129.814,183.801 123.626,185.000 123.603 C 185.220 123.599,185.940 123.303,186.600 122.946 C 188.780 121.766,190.106 121.652,200.800 121.727 C 210.983 121.797,211.463 121.835,212.994 122.700 M197.400 288.555 C 196.520 288.861,194.912 289.222,193.826 289.358 C 192.740 289.494,191.390 289.918,190.826 290.301 C 190.262 290.684,189.302 291.215,188.694 291.482 C 188.085 291.748,187.481 292.244,187.351 292.583 C 187.221 292.922,186.882 293.200,186.597 293.200 C 185.902 293.200,183.200 295.936,183.200 296.640 C 183.200 296.948,182.921 297.200,182.580 297.200 C 182.238 297.200,181.683 297.785,181.345 298.500 C 181.007 299.215,180.386 300.430,179.966 301.200 C 179.545 301.970,179.201 303.101,179.201 303.714 C 179.200 304.327,178.894 305.295,178.520 305.866 C 177.612 307.252,177.584 312.873,178.476 314.600 C 178.817 315.260,179.217 316.634,179.366 317.654 C 179.519 318.707,179.973 319.814,180.418 320.216 C 180.848 320.605,181.200 321.137,181.200 321.396 C 181.200 321.888,183.900 325.599,184.600 326.069 C 184.820 326.216,185.617 326.891,186.372 327.569 C 187.127 328.246,188.028 328.800,188.376 328.800 C 188.723 328.800,189.222 329.143,189.483 329.561 C 189.755 329.997,190.642 330.438,191.556 330.593 C 192.434 330.741,193.832 331.208,194.661 331.631 C 195.838 332.231,197.011 332.400,200.000 332.400 C 202.989 332.400,204.162 332.231,205.339 331.631 C 206.168 331.208,207.566 330.741,208.444 330.593 C 209.358 330.438,210.245 329.997,210.517 329.561 C 210.778 329.143,211.277 328.800,211.624 328.800 C 211.972 328.800,212.873 328.246,213.628 327.569 C 214.383 326.891,215.180 326.216,215.400 326.069 C 216.079 325.613,218.800 321.895,218.800 321.423 C 218.800 321.178,219.147 320.681,219.571 320.317 C 220.021 319.932,220.462 318.854,220.630 317.729 C 220.788 316.668,221.190 315.382,221.524 314.871 C 222.428 313.485,222.402 307.274,221.487 305.876 C 221.109 305.300,220.800 304.327,220.799 303.714 C 220.799 303.101,220.455 301.970,220.034 301.200 C 219.614 300.430,218.993 299.215,218.655 298.500 C 218.317 297.785,217.762 297.200,217.420 297.200 C 217.079 297.200,216.800 296.948,216.800 296.640 C 216.800 295.938,214.099 293.200,213.407 293.200 C 213.124 293.200,212.806 292.865,212.699 292.456 C 212.592 292.048,212.013 291.590,211.412 291.439 C 210.811 291.288,209.839 290.809,209.251 290.374 C 208.660 289.937,207.201 289.473,205.991 289.337 C 204.786 289.201,203.616 288.946,203.390 288.771 C 202.559 288.123,199.009 287.995,197.400 288.555 M204.277 289.608 C 217.659 291.780,225.163 307.864,218.643 320.400 C 217.478 322.642,211.997 328.400,211.029 328.400 C 210.742 328.400,210.040 328.768,209.468 329.218 C 208.419 330.043,204.629 331.065,201.073 331.481 C 193.833 332.329,184.428 326.706,181.001 319.481 C 177.773 312.673,178.712 302.898,183.108 297.548 C 188.699 290.744,195.517 288.186,204.277 289.608 M12.480 324.480 C 11.851 325.109,11.864 326.989,12.500 327.517 C 12.888 327.839,13.000 327.493,13.000 325.966 C 13.000 324.885,12.991 324.000,12.980 324.000 C 12.969 324.000,12.744 324.216,12.480 324.480 M387.000 326.000 C 387.000 327.500,387.112 327.839,387.500 327.517 C 387.775 327.289,388.000 326.606,388.000 326.000 C 388.000 325.394,387.775 324.711,387.500 324.483 C 387.112 324.161,387.000 324.500,387.000 326.000 " stroke="none" fill="#ee454c" fill-rule="evenodd"></path></g></svg>