<?xml version="1.0" encoding="UTF-8"?>
<svg version="1.1" xmlns="http://www.w3.org/2000/svg" width="200" height="200">
<path d="M0 0 C4.03231843 1.34410614 5.00998131 3.88412244 7.0625 7.375 C11.54205053 14.75516705 16.25241322 21.95638802 21.0625 29.125 C32.82074267 46.67589696 44.41357895 64.33537055 56 82 C56.40677979 82.61983765 56.81355957 83.23967529 57.23266602 83.8782959 C59.51338609 87.35369041 61.78992692 90.83177324 64.0625 94.3125 C64.58626221 95.11163818 65.11002441 95.91077637 65.6496582 96.73413086 C69 101.88273541 69 101.88273541 69 103 C24.12 103 -20.76 103 -67 103 C-63.92928644 97.4727156 -60.94767101 92.22015194 -57.41015625 87.03515625 C-56.52829007 85.72707468 -55.64696425 84.4186287 -54.76611328 83.10986328 C-54.31181946 82.43642883 -53.85752563 81.76299438 -53.38946533 81.06915283 C-51.04723958 77.58117588 -48.7407256 74.06984275 -46.43359375 70.55859375 C-45.95423874 69.82970444 -45.47488373 69.10081512 -44.98100281 68.34983826 C-43.46608803 66.04599729 -41.95179527 63.7417482 -40.4375 61.4375 C-39.36064657 59.79968986 -38.28374119 58.16191388 -37.20678711 56.52416992 C-34.96024549 53.10771853 -32.71392748 49.69112028 -30.46777344 46.27441406 C-25.22321156 38.29707928 -19.97615946 30.32138264 -14.72903442 22.34573364 C-13.08478231 19.84637046 -11.44069267 17.34690047 -9.79663086 14.84741211 C-8.79281054 13.32144883 -7.7889859 11.79548839 -6.78515625 10.26953125 C-6.32799225 9.57443451 -5.87082825 8.87933777 -5.39981079 8.16317749 C-3.60662209 5.43752208 -1.80978519 2.71467779 0 0 Z " fill="#E61414" transform="translate(99,48)"/>
</svg>
